<svg width="35.000000" height="35.000000" viewBox="0 0 35 35" fill="none" xmlns="http://www.w3.org/2000/svg" xmlns:xlink="http://www.w3.org/1999/xlink">
	<desc>
			Created with Pixso.
	</desc>
	<defs>
		<clipPath id="clip38_3289">
			<rect id="Group 77" width="35.000000" height="35.000000" fill="white" fill-opacity="0"/>
		</clipPath>
	</defs>
	<rect id="Group 77" width="35.000000" height="35.000000" fill="#FFFFFF" fill-opacity="0"/>
	<g clip-path="url(#clip38_3289)">
		<path id="Vector" d="M34.9399 17.4634C34.9399 27.1079 27.1216 34.9263 17.4771 34.9263C7.83203 34.9263 0.0136719 27.1079 0.0136719 17.4634C0.0136719 7.81836 7.83203 0 17.4771 0C27.1216 0 34.9399 7.81836 34.9399 17.4634Z" fill="#22253B" fill-opacity="1.000000" fill-rule="nonzero"/>
		<path id="Vector" d="M26.4731 11.6699C25.7637 10.8267 24.4536 10.4824 21.9521 10.4824L12.8716 10.4824C10.313 10.4824 8.98096 10.8486 8.27393 11.7466C7.58496 12.6221 7.58496 13.9116 7.58496 15.6973L7.58496 19.0996C7.58496 22.5581 8.40234 24.314 12.8716 24.314L21.9521 24.314C24.1216 24.314 25.3237 24.0107 26.1011 23.2666C26.8989 22.5029 27.2393 21.2568 27.2393 19.0996L27.2393 15.6973C27.2393 13.8145 27.1855 12.5171 26.4731 11.6699ZM20.2026 17.8682L16.0796 20.0229C15.9873 20.0713 15.8867 20.0952 15.7856 20.0952C15.6719 20.0952 15.5581 20.0645 15.4575 20.0034C15.2676 19.8887 15.1519 19.6831 15.1519 19.4614L15.1519 15.165C15.1519 14.9434 15.2676 14.7383 15.4565 14.623C15.646 14.5083 15.8813 14.5005 16.0781 14.6025L20.2017 16.7437C20.4111 16.8525 20.543 17.0688 20.5435 17.3052C20.5435 17.542 20.4126 17.7588 20.2026 17.8682Z" fill="#FFFFFF" fill-opacity="1.000000" fill-rule="nonzero"/>
	</g>
</svg>
