<svg width="35.000000" height="35.000000" viewBox="0 0 35 35" fill="none" xmlns="http://www.w3.org/2000/svg" xmlns:xlink="http://www.w3.org/1999/xlink">
	<desc>
			Created with Pixso.
	</desc>
	<defs>
		<clipPath id="clip38_3283">
			<rect id="Group 9 (2)" width="35.000000" height="35.000000" fill="white" fill-opacity="0"/>
		</clipPath>
	</defs>
	<rect id="Group 9 (2)" width="35.000000" height="35.000000" fill="#FFFFFF" fill-opacity="0"/>
	<g clip-path="url(#clip38_3283)">
		<path id="Vector" d="M34.874 17.437C34.874 27.0674 27.0674 34.874 17.437 34.874C7.80664 34.874 0 27.0674 0 17.437C0 7.80664 7.80664 0 17.437 0C27.0674 0 34.874 7.80664 34.874 17.437Z" fill="#22253B" fill-opacity="1.000000" fill-rule="nonzero"/>
		<path id="Vector" d="M16.8496 22.958L17.9648 22.958C17.9648 22.958 18.3018 22.9209 18.4736 22.7358C18.6323 22.5664 18.627 22.2476 18.627 22.2476C18.627 22.2476 18.6055 20.7549 19.2998 20.5352C19.9849 20.3188 20.8638 21.9775 21.7959 22.6157C22.5005 23.0981 23.0361 22.9927 23.0361 22.9927L25.5278 22.958C25.5278 22.958 26.8315 22.8779 26.2134 21.8555C26.1626 21.772 25.8535 21.0996 24.3608 19.7178C22.7983 18.271 23.0073 18.5049 24.8896 16.0034C26.0361 14.4795 26.4941 13.5493 26.3511 13.1509C26.2144 12.7715 25.3711 12.8716 25.3711 12.8716L22.5654 12.8892C22.5654 12.8892 22.3579 12.8608 22.2036 12.9526C22.0527 13.043 21.9556 13.2534 21.9556 13.2534C21.9556 13.2534 21.5117 14.4321 20.9194 15.4351C19.6699 17.5508 19.1704 17.6626 18.9663 17.5312C18.4912 17.2251 18.6099 16.3013 18.6099 15.6445C18.6099 13.5942 18.9219 12.7393 18.0024 12.5181C17.6978 12.4443 17.4731 12.396 16.6934 12.3882C15.6924 12.3779 14.8447 12.3911 14.3652 12.6255C14.0459 12.7817 13.7998 13.1289 13.9497 13.1489C14.1353 13.1738 14.5552 13.2617 14.7778 13.564C15.0654 13.9541 15.0552 14.8306 15.0552 14.8306C15.0552 14.8306 15.2202 17.2441 14.6694 17.5439C14.291 17.7495 13.7725 17.3296 12.6587 15.4102C12.0879 14.4268 11.6567 13.3403 11.6567 13.3403C11.6567 13.3403 11.5737 13.1372 11.4258 13.0283C11.2456 12.8965 10.9946 12.855 10.9946 12.855L8.32812 12.8721C8.32812 12.8721 7.92822 12.8833 7.78125 13.0571C7.65039 13.2114 7.77051 13.5308 7.77051 13.5308C7.77051 13.5308 9.85791 18.4009 12.2217 20.8555C14.3887 23.106 16.8496 22.958 16.8496 22.958Z" fill="#FFFFFF" fill-opacity="1.000000" fill-rule="evenodd"/>
	</g>
</svg>
