<svg width="60.999023" height="60.999268" viewBox="0 0 60.999 60.9993" fill="none" xmlns="http://www.w3.org/2000/svg" xmlns:xlink="http://www.w3.org/1999/xlink">
	<desc>
			Created with Pixso.
	</desc>
	<defs/>
	<path id="Vector" d="M60.3623 3.177L60.3623 11.3674L0.635254 11.3674L0.635254 3.177C0.635254 1.77319 1.77295 0.635254 3.17676 0.635254L57.8208 0.635254C59.2246 0.635254 60.3623 1.77319 60.3623 3.177Z" fill="#38BFF2" fill-opacity="1.000000" fill-rule="nonzero"/>
	<path id="Vector" d="M60.3638 11.3672L60.3638 57.8218C60.3638 59.2261 59.2266 60.3635 57.8223 60.3635L3.17676 60.3635C1.77246 60.3635 0.635254 59.2261 0.635254 57.8218L0.635254 11.3672L60.3638 11.3672Z" fill="#FFFFFF" fill-opacity="1.000000" fill-rule="nonzero"/>
	<path id="Vector" d="M55.916 28.8286L55.916 17.0857C55.916 16.384 55.3467 15.8149 54.645 15.8149L6.354 15.8149C5.65186 15.8149 5.08301 16.384 5.08301 17.0857L5.08301 28.8286C5.08301 29.5305 5.65186 30.0996 6.354 30.0996L54.645 30.0996C55.3467 30.0994 55.916 29.5305 55.916 28.8286Z" fill="#38BFF2" fill-opacity="1.000000" fill-rule="nonzero"/>
	<path id="Vector" d="M28.3013 6.00122C28.3013 6.83496 27.6255 7.5105 26.792 7.5105L5.95703 7.5105C5.12354 7.5105 4.44775 6.83496 4.44775 6.00122C4.44775 5.16772 5.12354 4.49219 5.95703 4.49219L26.792 4.49219C27.6255 4.49219 28.3013 5.16772 28.3013 6.00122Z" fill="#FFFFFF" fill-opacity="1.000000" fill-rule="nonzero"/>
	<path id="Vector" d="M56.5503 6.00122C56.5503 6.85913 55.855 7.55469 54.9971 7.55469C54.1387 7.55469 53.4434 6.85913 53.4434 6.00122C53.4434 5.14331 54.1387 4.44775 54.9971 4.44775C55.855 4.44775 56.5503 5.14331 56.5503 6.00122Z" fill="#FFFFFF" fill-opacity="1.000000" fill-rule="evenodd"/>
	<path id="Vector" d="M50.3071 6.00122C50.3071 6.85913 49.6118 7.55469 48.7539 7.55469C47.8955 7.55469 47.2002 6.85913 47.2002 6.00122C47.2002 5.14331 47.8955 4.44775 48.7539 4.44775C49.6118 4.44775 50.3071 5.14331 50.3071 6.00122Z" fill="#FFFFFF" fill-opacity="1.000000" fill-rule="evenodd"/>
	<path id="Vector" d="M44.064 6.00122C44.064 6.85913 43.3687 7.55469 42.5107 7.55469C41.6523 7.55469 40.957 6.85913 40.957 6.00122C40.957 5.14331 41.6523 4.44775 42.5107 4.44775C43.3687 4.44775 44.064 5.14331 44.064 6.00122Z" fill="#FFFFFF" fill-opacity="1.000000" fill-rule="evenodd"/>
	<path id="Vector" d="M37.4888 43.9768L37.4888 35.8179C37.4888 35.116 36.9199 34.5469 36.2183 34.5469L24.7808 34.5469C24.0786 34.5469 23.5098 35.116 23.5098 35.8179L23.5098 43.9768C23.5098 44.6787 24.0786 45.2478 24.7808 45.2478L36.2183 45.2478C36.9199 45.2476 37.4888 44.6787 37.4888 43.9768Z" fill="#38BFF2" fill-opacity="1.000000" fill-rule="nonzero"/>
	<path id="Vector" d="M19.062 43.9768L19.062 35.8179C19.062 35.116 18.4932 34.5469 17.791 34.5469L6.354 34.5469C5.65186 34.5469 5.08301 35.116 5.08301 35.8179L5.08301 43.9768C5.08301 44.6787 5.65186 45.2478 6.354 45.2478L17.7915 45.2478C18.4932 45.2476 19.062 44.6787 19.062 43.9768Z" fill="#38BFF2" fill-opacity="1.000000" fill-rule="nonzero"/>
	<path id="Vector" d="M55.916 43.9768L55.916 35.8179C55.916 35.116 55.3472 34.5469 54.6455 34.5469L43.208 34.5469C42.5059 34.5469 41.937 35.116 41.937 35.8179L41.937 43.9768C41.937 44.6787 42.5059 45.2478 43.208 45.2478L54.6455 45.2478C55.3472 45.2476 55.916 44.6787 55.916 43.9768Z" fill="#38BFF2" fill-opacity="1.000000" fill-rule="nonzero"/>
	<path id="Vector" d="M60.998 3.177C60.998 1.42529 59.5728 0 57.8213 0L3.17725 0C1.42529 0 0 1.42529 0 3.177L0 57.8223C0 59.574 1.42529 60.9993 3.17725 60.9993L57.8223 60.9993C59.5737 60.9993 60.999 59.574 60.999 57.8223C60.9995 57.2283 60.998 10.1753 60.998 3.177ZM1.271 3.177C1.271 2.12573 2.12598 1.27075 3.17725 1.27075L57.8208 1.27075C58.8721 1.27075 59.7271 2.12573 59.7271 3.177L59.7271 10.7319L1.271 10.7319L1.271 3.177ZM57.8223 59.7285L3.17725 59.7285C2.12598 59.7285 1.271 58.8735 1.271 57.8223L1.271 12.0027L59.7285 12.0027L59.7285 57.8223C59.7285 58.8735 58.8735 59.7285 57.8223 59.7285Z" fill="#1A2E35" fill-opacity="1.000000" fill-rule="nonzero"/>
	<path id="Vector" d="M54.645 15.1797L6.354 15.1797C5.30273 15.1797 4.44775 16.0347 4.44775 17.0859L4.44775 28.8286C4.44775 29.8796 5.30273 30.7349 6.354 30.7349L54.645 30.7349C55.6963 30.7349 56.5513 29.8796 56.5513 28.8286L56.5513 17.0859C56.5513 16.0347 55.6963 15.1797 54.645 15.1797ZM55.2808 28.8286C55.2808 29.1792 54.9956 29.4639 54.645 29.4639L6.354 29.4639C6.00342 29.4639 5.71875 29.179 5.71875 28.8286L5.71875 17.0859C5.71875 16.7354 6.00342 16.4504 6.354 16.4504L54.645 16.4504C54.9956 16.4504 55.2808 16.7354 55.2808 17.0859L55.2808 28.8286Z" fill="#1A2E35" fill-opacity="1.000000" fill-rule="nonzero"/>
	<path id="Vector" d="M26.7915 3.85693L5.95654 3.85693C4.77393 3.85693 3.81201 4.81885 3.81201 6.00146C3.81201 7.18408 4.77393 8.146 5.95654 8.146L26.7915 8.146C27.9741 8.146 28.936 7.18408 28.936 6.00146C28.936 4.81885 27.9746 3.85693 26.7915 3.85693ZM26.7915 6.87524L5.95654 6.87524C5.4751 6.87524 5.08301 6.48291 5.08301 6.00146C5.08301 5.52002 5.4751 5.12769 5.95654 5.12769L26.7915 5.12769C27.2729 5.12769 27.665 5.52002 27.665 6.00146C27.665 6.48291 27.2729 6.87524 26.7915 6.87524Z" fill="#1A2E35" fill-opacity="1.000000" fill-rule="nonzero"/>
	<path id="Vector" d="M54.9961 3.8125C53.7896 3.8125 52.8076 4.79492 52.8076 6.00171C52.8076 7.2085 53.7896 8.19043 54.9961 8.19043C56.2031 8.19043 57.1855 7.20874 57.1855 6.00171C57.1855 4.79468 56.2031 3.8125 54.9961 3.8125ZM54.9961 6.91943C54.4897 6.91943 54.0786 6.50806 54.0786 6.00171C54.0786 5.49536 54.4897 5.08325 54.9961 5.08325C55.5024 5.08325 55.9146 5.49536 55.9146 6.00171C55.9146 6.50806 55.5024 6.91943 54.9961 6.91943Z" fill="#1A2E35" fill-opacity="1.000000" fill-rule="nonzero"/>
	<path id="Vector" d="M48.7534 3.8125C47.5469 3.8125 46.5645 4.79492 46.5645 6.00171C46.5645 7.2085 47.5469 8.19043 48.7534 8.19043C49.9604 8.19043 50.9424 7.20874 50.9424 6.00171C50.9424 4.79468 49.9604 3.8125 48.7534 3.8125ZM48.7534 6.91943C48.2471 6.91943 47.8354 6.50806 47.8354 6.00171C47.8354 5.49536 48.2471 5.08325 48.7534 5.08325C49.2598 5.08325 49.6714 5.49536 49.6714 6.00171C49.6714 6.50806 49.2598 6.91943 48.7534 6.91943Z" fill="#1A2E35" fill-opacity="1.000000" fill-rule="nonzero"/>
	<path id="Vector" d="M42.5112 3.8125C41.3042 3.8125 40.3218 4.79492 40.3218 6.00171C40.3218 7.2085 41.3042 8.19043 42.5112 8.19043C43.7178 8.19043 44.6997 7.20874 44.6997 6.00171C44.6997 4.79468 43.7178 3.8125 42.5112 3.8125ZM42.5112 6.91943C42.0049 6.91943 41.5928 6.50806 41.5928 6.00171C41.5928 5.49536 42.0049 5.08325 42.5112 5.08325C43.0176 5.08325 43.4287 5.49536 43.4287 6.00171C43.4287 6.50806 43.0171 6.91943 42.5112 6.91943Z" fill="#1A2E35" fill-opacity="1.000000" fill-rule="nonzero"/>
	<path id="Vector" d="M19.062 49.0601L5.08301 49.0601C4.73193 49.0601 4.44775 49.3442 4.44775 49.6956C4.44775 50.0466 4.73193 50.3308 5.08301 50.3308L19.062 50.3308C19.4136 50.3308 19.6978 50.0466 19.6978 49.6956C19.6978 49.3442 19.4136 49.0601 19.062 49.0601Z" fill="#1A2E35" fill-opacity="1.000000" fill-rule="nonzero"/>
	<path id="Vector" d="M19.062 55.2808L5.08301 55.2808C4.73193 55.2808 4.44775 55.5649 4.44775 55.916C4.44775 56.2673 4.73193 56.5515 5.08301 56.5515L19.062 56.5515C19.4136 56.5515 19.6978 56.2673 19.6978 55.916C19.6978 55.5649 19.4136 55.2808 19.062 55.2808Z" fill="#1A2E35" fill-opacity="1.000000" fill-rule="nonzero"/>
	<path id="Vector" d="M19.062 52.1704L5.08301 52.1704C4.73193 52.1704 4.44775 52.4546 4.44775 52.8057C4.44775 53.157 4.73193 53.4412 5.08301 53.4412L19.062 53.4412C19.4136 53.4412 19.6978 53.157 19.6978 52.8057C19.6978 52.4546 19.4136 52.1704 19.062 52.1704Z" fill="#1A2E35" fill-opacity="1.000000" fill-rule="nonzero"/>
	<path id="Vector" d="M37.4888 49.0601L23.5098 49.0601C23.1587 49.0601 22.8745 49.3442 22.8745 49.6956C22.8745 50.0466 23.1587 50.3308 23.5098 50.3308L37.4888 50.3308C37.8403 50.3308 38.1245 50.0466 38.1245 49.6956C38.1245 49.3442 37.8403 49.0601 37.4888 49.0601Z" fill="#1A2E35" fill-opacity="1.000000" fill-rule="nonzero"/>
	<path id="Vector" d="M37.4888 55.2808L23.5098 55.2808C23.1587 55.2808 22.8745 55.5649 22.8745 55.916C22.8745 56.2673 23.1587 56.5515 23.5098 56.5515L37.4888 56.5515C37.8403 56.5515 38.1245 56.2673 38.1245 55.916C38.1245 55.5649 37.8403 55.2808 37.4888 55.2808Z" fill="#1A2E35" fill-opacity="1.000000" fill-rule="nonzero"/>
	<path id="Vector" d="M37.4888 52.1704L23.5098 52.1704C23.1587 52.1704 22.8745 52.4546 22.8745 52.8057C22.8745 53.157 23.1587 53.4412 23.5098 53.4412L37.4888 53.4412C37.8403 53.4412 38.1245 53.157 38.1245 52.8057C38.1245 52.4546 37.8403 52.1704 37.4888 52.1704Z" fill="#1A2E35" fill-opacity="1.000000" fill-rule="nonzero"/>
	<path id="Vector" d="M55.9155 49.0601L41.9365 49.0601C41.5854 49.0601 41.3013 49.3442 41.3013 49.6956C41.3013 50.0466 41.5854 50.3308 41.9365 50.3308L55.9155 50.3308C56.2671 50.3308 56.5513 50.0466 56.5513 49.6956C56.5513 49.3442 56.2671 49.0601 55.9155 49.0601Z" fill="#1A2E35" fill-opacity="1.000000" fill-rule="nonzero"/>
	<path id="Vector" d="M55.9155 55.2808L41.9365 55.2808C41.5854 55.2808 41.3013 55.5649 41.3013 55.916C41.3013 56.2673 41.5854 56.5515 41.9365 56.5515L55.9155 56.5515C56.2671 56.5515 56.5513 56.2673 56.5513 55.916C56.5513 55.5649 56.2671 55.2808 55.9155 55.2808Z" fill="#1A2E35" fill-opacity="1.000000" fill-rule="nonzero"/>
	<path id="Vector" d="M55.9155 52.1704L41.9365 52.1704C41.5854 52.1704 41.3013 52.4546 41.3013 52.8057C41.3013 53.157 41.5854 53.4412 41.9365 53.4412L55.9155 53.4412C56.2671 53.4412 56.5513 53.157 56.5513 52.8057C56.5513 52.4546 56.2671 52.1704 55.9155 52.1704Z" fill="#1A2E35" fill-opacity="1.000000" fill-rule="nonzero"/>
	<path id="Vector" d="M36.2183 33.9116L24.7808 33.9116C23.7295 33.9116 22.8745 34.7666 22.8745 35.8179L22.8745 43.9771C22.8745 45.0283 23.7295 45.8833 24.7808 45.8833L36.2183 45.8833C37.2695 45.8833 38.1245 45.0283 38.1245 43.9771L38.1245 35.8179C38.1245 34.7666 37.2695 33.9116 36.2183 33.9116ZM36.8535 43.9771C36.8535 44.3276 36.5688 44.6125 36.2183 44.6125L24.7808 44.6125C24.4302 44.6125 24.1455 44.3276 24.1455 43.9771L24.1455 35.8179C24.1455 35.4673 24.4302 35.1824 24.7808 35.1824L36.2183 35.1824C36.5688 35.1824 36.8535 35.4673 36.8535 35.8179L36.8535 43.9771Z" fill="#1A2E35" fill-opacity="1.000000" fill-rule="nonzero"/>
	<path id="Vector" d="M17.7915 33.9116L6.354 33.9116C5.30273 33.9116 4.44775 34.7666 4.44775 35.8179L4.44775 43.9771C4.44775 45.0283 5.30273 45.8833 6.354 45.8833L17.7915 45.8833C18.8428 45.8833 19.6978 45.0283 19.6978 43.9771L19.6978 35.8179C19.6978 34.7666 18.8423 33.9116 17.7915 33.9116ZM18.4268 43.9771C18.4268 44.3276 18.1421 44.6125 17.7915 44.6125L6.354 44.6125C6.00342 44.6125 5.71875 44.3276 5.71875 43.9771L5.71875 35.8179C5.71875 35.4673 6.00342 35.1824 6.354 35.1824L17.7915 35.1824C18.1421 35.1824 18.4268 35.4673 18.4268 35.8179L18.4268 43.9771Z" fill="#1A2E35" fill-opacity="1.000000" fill-rule="nonzero"/>
	<path id="Vector" d="M54.645 33.9116L43.2075 33.9116C42.1562 33.9116 41.3013 34.7666 41.3013 35.8179L41.3013 43.9771C41.3013 45.0283 42.1562 45.8833 43.2075 45.8833L54.645 45.8833C55.6963 45.8833 56.5513 45.0283 56.5513 43.9771L56.5513 35.8179C56.5513 34.7666 55.6963 33.9116 54.645 33.9116ZM55.2803 43.9771C55.2803 44.3276 54.9956 44.6125 54.645 44.6125L43.2075 44.6125C42.8569 44.6125 42.5723 44.3276 42.5723 43.9771L42.5723 35.8179C42.5723 35.4673 42.8569 35.1824 43.2075 35.1824L54.645 35.1824C54.9956 35.1824 55.2803 35.4673 55.2803 35.8179L55.2803 43.9771Z" fill="#1A2E35" fill-opacity="1.000000" fill-rule="nonzero"/>
</svg>
