<svg width="35.000000" height="35.000000" viewBox="0 0 35 35" fill="none" xmlns="http://www.w3.org/2000/svg" xmlns:xlink="http://www.w3.org/1999/xlink">
	<desc>
			Created with Pixso.
	</desc>
	<defs>
		<clipPath id="clip38_3277">
			<rect id="Group 9" width="35.000000" height="35.000000" fill="white" fill-opacity="0"/>
		</clipPath>
	</defs>
	<rect id="Group 9" width="35.000000" height="35.000000" fill="#FFFFFF" fill-opacity="0"/>
	<g clip-path="url(#clip38_3277)">
		<path id="Vector" d="M34.8882 17.437C34.8882 27.0674 27.0815 34.874 17.4512 34.874C7.8208 34.874 0.0141602 27.0674 0.0141602 17.437C0.0141602 7.80664 7.8208 0 17.4512 0C27.0815 0 34.8882 7.80664 34.8882 17.437Z" fill="#22253B" fill-opacity="1.000000" fill-rule="nonzero"/>
		<path id="Vector" d="M21.4009 8.68652L13.2124 8.68652C10.5469 8.68652 8.37891 10.8545 8.37891 13.5195L8.37891 21.7085C8.37891 24.3735 10.5469 26.542 13.2124 26.542L21.4009 26.542C24.0659 26.542 26.2339 24.3735 26.2339 21.7085L26.2339 13.5195C26.2339 10.8545 24.0659 8.68652 21.4009 8.68652ZM17.3066 22.4961C14.6143 22.4961 12.4243 20.3062 12.4243 17.6143C12.4243 14.9219 14.6143 12.7319 17.3066 12.7319C19.9985 12.7319 22.189 14.9219 22.189 17.6143C22.189 20.3062 19.9985 22.4961 17.3066 22.4961ZM22.3057 13.8833C21.5098 13.8833 20.8628 13.2363 20.8628 12.4409C20.8628 11.645 21.5098 10.998 22.3057 10.998C23.1011 10.998 23.748 11.645 23.748 12.4409C23.748 13.2363 23.1011 13.8833 22.3057 13.8833Z" fill="#FFFFFF" fill-opacity="1.000000" fill-rule="nonzero"/>
		<path id="Vector" d="M17.3071 13.7788C15.1924 13.7788 13.4717 15.4995 13.4717 17.6143C13.4717 19.729 15.1924 21.4497 17.3071 21.4497C19.4219 21.4497 21.1426 19.729 21.1426 17.6143C21.1426 15.4995 19.4219 13.7788 17.3071 13.7788Z" fill="#FFFFFF" fill-opacity="1.000000" fill-rule="nonzero"/>
		<path id="Vector" d="M22.3062 12.0444C22.0879 12.0444 21.9102 12.2222 21.9102 12.4404C21.9102 12.6587 22.0879 12.8359 22.3062 12.8359C22.5244 12.8359 22.7021 12.6587 22.7021 12.4404C22.7021 12.2222 22.5244 12.0444 22.3062 12.0444Z" fill="#FFFFFF" fill-opacity="1.000000" fill-rule="nonzero"/>
	</g>
</svg>
