<svg width="382" height="326" xmlns="http://www.w3.org/2000/svg" fill="none">

 <g>
  <title>Layer 1</title>
  <path id="svg_1" stroke-miterlimit="10" stroke-width="1.33333" stroke="#1A2E35" d="m322.878,100.903c4.059,-0.947 7.657,-3.0811 10.412,-6.0216l6.657,2.2511l3.321,-5.7526l-5.275,-4.6345c0.581,-1.9047 0.889,-3.9217 0.889,-6.017c0,-2.0897 -0.308,-4.1115 -0.889,-6.0114l5.275,-4.6402l-3.321,-5.7526l-6.657,2.2512c-2.755,-2.9396 -6.353,-5.0737 -10.412,-6.017l-1.382,-6.8858l-3.32,0"/>
  <path id="svg_2" stroke-miterlimit="10" stroke-width="1.33333" stroke="#1A2E35" d="m314.855,53.6724l-1.378,6.8857c-4.058,0.9434 -7.662,3.0765 -10.416,6.0171l-6.656,-2.2512l-3.322,5.7526l5.274,4.6393c-0.576,1.8999 -0.888,3.9216 -0.888,6.0122c0,2.0954 0.312,4.1115 0.888,6.0161l-5.274,4.6355l3.322,5.7526l6.656,-2.2512c2.754,2.9396 6.358,5.0737 10.416,6.0219l1.378,6.886l6.641,0l1.383,-6.886"/>
  <path id="svg_3" stroke-miterlimit="10" stroke-width="1.33333" stroke="#1A2E35" d="m317.756,91.8062c-11.842,-0.8282 -14.066,-18.069 -2.23,-21.0973"/>
  <path id="svg_4" stroke-miterlimit="10" stroke-width="1.33333" stroke="#1A2E35" d="m325.244,73.0802c5.892,5.3995 4.027,15.9358 -3.827,18.3154"/>
  <path id="svg_5" stroke-miterlimit="10" stroke-width="1.33333" stroke="#1A2E35" d="m319.525,70.4627c1.028,0.1284 2.035,0.4041 2.982,0.8253"/>
  <path id="svg_6" stroke-miterlimit="10" stroke-width="1.33333" stroke="#1A2E35" d="m358.156,106.145l1.397,-1.676c2.557,0.703 5.315,0.663 7.92,-0.201l3.14,3.393"/>
  <path id="svg_7" stroke-miterlimit="10" stroke-width="1.33333" stroke="#1A2E35" d="m352.997,79.9617l0.607,1.6525c-1.956,1.9245 -3.246,4.3617 -3.781,6.9594l-4.513,1.0246l0.112,4.372l4.559,0.7923c0.328,1.2644 0.848,2.508 1.567,3.6808c0.721,1.1766 1.588,2.2017 2.568,3.0737l-1.37,4.415l3.844,2.089"/>
  <path id="svg_8" stroke-miterlimit="10" stroke-width="1.33333" stroke="#1A2E35" d="m370.614,107.662l3.729,-2.283l-1.591,-4.342c1.953,-1.9275 3.24,-4.3629 3.777,-6.9606l4.511,-1.0245l-0.113,-4.3721l-4.554,-0.7894c-0.329,-1.2691 -0.85,-2.5081 -1.57,-3.6837c-0.718,-1.1747 -1.586,-2.204 -2.565,-3.0708l1.366,-4.4183l-3.842,-2.0888l-2.964,3.5524c-2.558,-0.7035 -5.313,-0.6648 -7.916,0.2011l-3.143,-3.3918l-3.73,2.2833"/>
  <path id="svg_9" stroke-miterlimit="10" stroke-width="1.33333" stroke="#1A2E35" d="m370.06,89.717c1.289,5.4268 -3.863,10.649 -9.311,8.4448c-5.195,-2.1011 -5.951,-9.7196 -1.131,-12.6478"/>
  <path id="svg_10" stroke-miterlimit="10" stroke-width="1.33333" stroke="#1A2E35" d="m365.603,84.8497c1.087,0.3701 2.081,0.9962 2.863,1.8404"/>
  <path id="svg_11" stroke-miterlimit="10" stroke-width="1.33333" stroke="#1A2E35" d="m66.3208,197.093l7.0916,7.093c-0.5788,2.491 0.0944,5.215 2.0368,7.158c1.9424,1.941 4.6648,2.614 7.1568,2.036l-4.4542,-4.456l1.2068,-4.505l4.5061,-1.208l4.4542,4.455c0.5798,-2.491 -0.0935,-5.216 -2.0349,-7.158c-1.9434,-1.942 -4.6667,-2.615 -7.1577,-2.035l-6.5317,-6.532"/>
  <path id="svg_12" stroke-miterlimit="10" stroke-width="1.33333" stroke="#1A2E35" d="m62.2169,181.563l-6.509,-6.51c0.5789,-2.491 -0.0944,-5.214 -2.0359,-7.157c-1.9424,-1.942 -4.6657,-2.614 -7.1577,-2.035l4.4542,4.455l-1.2068,4.505l-4.5061,1.208l-4.4552,-4.455c-0.5779,2.492 0.0945,5.215 2.0369,7.157c1.9424,1.943 4.6657,2.616 7.1577,2.036l6.509,6.51"/>
  <path id="svg_13" stroke-miterlimit="10" stroke-width="1.33333" stroke="#1A2E35" d="m69.5252,188.411l9.0765,-9.076c0.4457,-0.447 0.9575,-0.821 1.5184,-1.111l1.8272,-0.944l6.5732,-7.512l-4.1086,-4.108l-7.5119,6.573l-0.9442,1.828c-0.2899,0.56 -0.6639,1.071 -1.1105,1.517l-7.1983,7.199"/>
  <path id="svg_14" stroke-miterlimit="10" stroke-width="1.33333" stroke="#1A2E35" d="m45.3711,212.216c1.3277,0.702 2.6931,0.708 3.9462,-0.545l15.7281,-15.728c0.8725,-0.872 1.1284,-1.8 0.9698,-2.73l2.7271,-2.728l0.1662,0.166c0.3928,0.392 1.0358,0.393 1.4277,0.001c0.3928,-0.393 0.3928,-1.036 0,-1.429l-5.3796,-5.38c-0.3919,-0.393 -1.0349,-0.393 -1.4278,0c-0.3928,0.393 -0.3928,1.036 0,1.429l0.1662,0.166l-2.7261,2.727c-0.932,-0.158 -1.8593,0.098 -2.7318,0.971l-15.7281,15.728c-0.8263,0.826 -1.1048,1.703 -0.9972,2.584"/>
  <path id="svg_15" stroke-miterlimit="10" stroke-width="1.33333" stroke="#1A2E35" d="m42.1399,209.116c0.3362,0.551 0.7866,1.094 1.3088,1.617c0.6194,0.618 1.2672,1.136 1.9225,1.483"/>
  <path id="svg_16" stroke-miterlimit="10" stroke-width="1.33333" stroke="#1A2E35" d="m46.9792,207.447l2.7451,-2.745"/>
  <path id="svg_17" stroke-miterlimit="10" stroke-width="1.33333" stroke="#1A2E35" d="m53.4387,200.988l11.611,-11.859"/>
  <path id="svg_18" fill="white" d="m306.868,0.42815l-251.7513,0l0,163.55485l251.7513,0l0,-163.55485z"/>
  <path id="svg_19" fill="#C0C0C0" d="m306.868,0.4279l-251.7508,0l0,163.5541l26.6166,0l42.2012,0l182.933,0l0,-163.5541z"/>
  <path id="svg_20" fill="white" d="m55.1177,21.8245l251.7513,0l0,-21.39664l-251.7513,0l0,21.39664z"/>
  <path id="svg_21" fill="#767676" d="m55.1177,21.8245l251.7513,0l0,-21.39664l-251.7513,0l0,21.39664z"/>
  <path id="svg_22" fill="white" d="m299.153,18.4161l-9.639,0c-1.364,0 -2.471,-1.1057 -2.471,-2.4702l0,-9.63931c0,-1.3645 1.107,-2.47026 2.471,-2.47026l9.639,0c1.365,0 2.47,1.10576 2.47,2.47026l0,9.63931c0,1.3645 -1.105,2.4702 -2.47,2.4702z"/>
  <path id="svg_23" fill="white" d="m281.262,18.4161l-9.592,0c-1.377,0 -2.494,-1.1171 -2.494,-2.4948l0,-9.5911c0,-1.37772 1.117,-2.49387 2.494,-2.49387l9.592,0c1.378,0 2.495,1.11615 2.495,2.49387l0,9.5911c0,1.3777 -1.117,2.4948 -2.495,2.4948z"/>
  <path id="svg_24" fill="white" d="m263.417,18.4161l-9.637,0c-1.365,0 -2.471,-1.1057 -2.471,-2.4712l0,-9.63737c0,-1.36544 1.106,-2.4712 2.471,-2.4712l9.637,0c1.365,0 2.471,1.10576 2.471,2.4712l0,9.63737c0,1.3655 -1.106,2.4712 -2.471,2.4712z"/>
  <path id="svg_25" fill="#1A2E35" d="m64.5608,36.1931l0,113.4209c0,2.721 2.2049,4.926 4.9245,4.926l223.0157,0c2.719,0 4.925,-2.205 4.925,-4.926l0,-113.4209c0,-2.7195 -2.206,-4.9254 -4.925,-4.9254l-223.0157,0c-2.7196,0 -4.9245,2.2059 -4.9245,4.9254z"/>
  <path id="svg_26" stroke-linejoin="round" stroke-linecap="round" stroke-miterlimit="10" stroke-width="1.33333" stroke="#1A2E35" d="m64.5608,36.1931l0,113.4209c0,2.721 2.2049,4.926 4.9245,4.926l223.0157,0c2.719,0 4.925,-2.205 4.925,-4.926l0,-113.4209c0,-2.7195 -2.206,-4.9254 -4.925,-4.9254l-223.0157,0c-2.7196,0 -4.9245,2.2059 -4.9245,4.9254z"/>
  <path id="svg_27" stroke-linejoin="round" stroke-linecap="round" stroke-miterlimit="10" stroke-width="1.33333" stroke="#1A2E35" d="m291.205,14.2534l6.255,-6.25494"/>
  <path id="svg_28" stroke-linejoin="round" stroke-linecap="round" stroke-miterlimit="10" stroke-width="1.33333" stroke="#1A2E35" d="m291.205,7.99846l6.255,6.25494"/>
  <path id="svg_29" stroke-linejoin="round" stroke-linecap="round" stroke-miterlimit="10" stroke-width="1.33333" stroke="#1A2E35" d="m280.636,15.2959l-8.34,0l0,-5.50708l8.34,0l0,5.50708z"/>
  <path id="svg_30" stroke-linejoin="round" stroke-linecap="round" stroke-miterlimit="10" stroke-width="1.33333" stroke="#1A2E35" d="m262.768,15.2966l-8.34,0"/>
  <path id="svg_31" fill="#767676" d="m282.78,115.066l-16.549,0c-1.043,0 -1.888,-0.847 -1.888,-1.889c0,-1.043 0.845,-1.889 1.888,-1.889l16.549,0c1.042,0 1.888,0.846 1.888,1.889c0,1.042 -0.846,1.889 -1.888,1.889z"/>
  <path id="svg_32" fill="#767676" d="m282.78,128.128l-46.204,0c-1.043,0 -1.889,-0.846 -1.889,-1.889c0,-1.042 0.846,-1.888 1.889,-1.888l46.204,0c1.042,0 1.888,0.846 1.888,1.888c0,1.043 -0.846,1.889 -1.888,1.889z"/>
  <path id="svg_33" fill="#767676" d="m282.779,141.191l-101.786,0c-1.043,0 -1.889,-0.847 -1.889,-1.889c0,-1.043 0.846,-1.889 1.889,-1.889l101.786,0c1.043,0 1.889,0.846 1.889,1.889c0,1.042 -0.846,1.889 -1.889,1.889z"/>
  <path id="svg_34" fill="#C0C0C0" d="m82.0277,102.003l-7.7092,0c-1.0434,0 -1.8886,-0.846 -1.8886,-1.889c0,-1.0424 0.8452,-1.8885 1.8886,-1.8885l7.7092,0c1.0425,0 1.8885,0.8461 1.8885,1.8885c0,1.043 -0.846,1.889 -1.8885,1.889z"/>
  <path id="svg_35" fill="#C0C0C0" d="m82.0277,115.066l-7.7092,0c-1.0434,0 -1.8886,-0.847 -1.8886,-1.889c0,-1.043 0.8452,-1.889 1.8886,-1.889l7.7092,0c1.0425,0 1.8885,0.846 1.8885,1.889c0,1.042 -0.846,1.889 -1.8885,1.889z"/>
  <path id="svg_36" fill="#C0C0C0" d="m82.0277,128.128l-7.7092,0c-1.0434,0 -1.8886,-0.846 -1.8886,-1.889c0,-1.042 0.8452,-1.888 1.8886,-1.888l7.7092,0c1.0425,0 1.8885,0.846 1.8885,1.888c0,1.043 -0.846,1.889 -1.8885,1.889z"/>
  <path id="svg_37" fill="#C0C0C0" d="m82.0277,141.191l-7.7092,0c-1.0434,0 -1.8886,-0.846 -1.8886,-1.889c0,-1.042 0.8452,-1.888 1.8886,-1.888l7.7092,0c1.0425,0 1.8885,0.846 1.8885,1.888c0,1.043 -0.846,1.889 -1.8885,1.889z"/>
  <g id="svg_38" opacity="0.7">
   <g id="svg_39" opacity="0.7">
    <path id="svg_40" fill="#C0C0C0" d="m82.0286,102.002l-7.7091,0c-1.0435,0 -1.8886,-0.846 -1.8886,-1.889c0,-1.042 0.8451,-1.8881 1.8886,-1.8881l7.7091,0c1.0425,0 1.8886,0.8461 1.8886,1.8881c0,1.043 -0.8461,1.889 -1.8886,1.889z" opacity="0.7"/>
   </g>
  </g>
  <g id="svg_41" opacity="0.7">
   <g id="svg_42" opacity="0.7">
    <path id="svg_43" fill="#C0C0C0" d="m82.0277,115.066l-7.7092,0c-1.0434,0 -1.8886,-0.846 -1.8886,-1.889c0,-1.042 0.8452,-1.888 1.8886,-1.888l7.7092,0c1.0425,0 1.8885,0.846 1.8885,1.888c0,1.043 -0.846,1.889 -1.8885,1.889z" opacity="0.7"/>
   </g>
  </g>
  <g id="svg_44" opacity="0.7">
   <g id="svg_45" opacity="0.7">
    <path id="svg_46" fill="#C0C0C0" d="m82.0277,128.128l-7.7092,0c-1.0434,0 -1.8886,-0.846 -1.8886,-1.889c0,-1.042 0.8452,-1.888 1.8886,-1.888l7.7092,0c1.0425,0 1.8885,0.846 1.8885,1.888c0,1.043 -0.846,1.889 -1.8885,1.889z" opacity="0.7"/>
   </g>
  </g>
  <g id="svg_47" opacity="0.7">
   <g id="svg_48" opacity="0.7">
    <path id="svg_49" fill="#C0C0C0" d="m82.0277,141.191l-7.7092,0c-1.0434,0 -1.8886,-0.846 -1.8886,-1.889c0,-1.042 0.8452,-1.888 1.8886,-1.888l7.7092,0c1.0425,0 1.8885,0.846 1.8885,1.888c0,1.043 -0.846,1.889 -1.8885,1.889z" opacity="0.7"/>
   </g>
  </g>
  <path id="svg_50" fill="#C0C0C0" d="m236.576,88.9404l-162.2577,0c-1.0425,0 -1.8886,-0.8461 -1.8886,-1.8885c0,-1.0425 0.8461,-1.8886 1.8886,-1.8886l162.2577,0c1.043,0 1.889,0.8461 1.889,1.8886c0,1.0424 -0.846,1.8885 -1.889,1.8885z"/>
  <path id="svg_51" fill="#C0C0C0" d="m282.78,62.8149l-16.549,0c-1.043,0 -1.888,-0.846 -1.888,-1.8885c0,-1.0425 0.845,-1.8886 1.888,-1.8886l16.549,0c1.042,0 1.888,0.8461 1.888,1.8886c0,1.0425 -0.846,1.8885 -1.888,1.8885z"/>
  <path id="svg_52" fill="#C0C0C0" d="m259.305,62.8149l-15.804,0c-1.044,0 -1.889,-0.846 -1.889,-1.8885c0,-1.0425 0.845,-1.8886 1.889,-1.8886l15.804,0c1.043,0 1.889,0.8461 1.889,1.8886c0,1.0425 -0.846,1.8885 -1.889,1.8885z"/>
  <path id="svg_53" fill="#C0C0C0" d="m236.576,62.8149l-162.258,0c-1.0425,0 -1.8886,-0.846 -1.8886,-1.8885c0,-1.0425 0.8461,-1.8886 1.8886,-1.8886l162.258,0c1.042,0 1.889,0.8461 1.889,1.8886c0,1.0425 -0.847,1.8885 -1.889,1.8885z"/>
  <path id="svg_54" fill="#BBBBBB" d="m282.78,102.003l-16.55,0c-1.043,0 -1.888,-0.846 -1.888,-1.889c0,-1.0424 0.845,-1.8885 1.888,-1.8885l16.55,0c1.042,0 1.888,0.8461 1.888,1.8885c0,1.043 -0.846,1.889 -1.888,1.889z"/>
  <path id="svg_55" fill="#BBBBBB" d="m259.306,102.003l-168.7797,0c-1.0425,0 -1.8886,-0.846 -1.8886,-1.889c0,-1.0424 0.8461,-1.8885 1.8886,-1.8885l168.7797,0c1.043,0 1.889,0.8461 1.889,1.8885c0,1.043 -0.846,1.889 -1.889,1.889z"/>
  <path id="svg_56" fill="#BBBBBB" d="m139,115.066l-48.4735,0c-1.0434,0 -1.8886,-0.847 -1.8886,-1.889c0,-1.043 0.8452,-1.889 1.8886,-1.889l48.4735,0c1.042,0 1.888,0.846 1.888,1.889c0,1.042 -0.846,1.889 -1.888,1.889z"/>
  <path id="svg_57" fill="#BBBBBB" d="m138.999,128.128l-48.4727,0c-1.0435,0 -1.8886,-0.846 -1.8886,-1.889c0,-1.042 0.8451,-1.888 1.8886,-1.888l48.4727,0c1.043,0 1.889,0.846 1.889,1.888c0,1.043 -0.846,1.889 -1.889,1.889z"/>
  <path id="svg_58" fill="#BBBBBB" d="m138.999,141.191l-48.4727,0c-1.0435,0 -1.8886,-0.846 -1.8886,-1.889c0,-1.042 0.8451,-1.888 1.8886,-1.888l48.4727,0c1.043,0 1.889,0.846 1.889,1.888c0,1.043 -0.846,1.889 -1.889,1.889z"/>
  <path id="svg_59" fill="white" d="m107.167,308.719c0,0 -4.954,8.524 -3.003,8.833c1.95,0.306 6.031,-7.063 6.031,-7.063l11.189,-2.966l-8.428,-0.87l-5.789,2.066z"/>
  <path id="svg_60" stroke-linejoin="round" stroke-linecap="round" stroke-miterlimit="10" stroke-width="1.33333" stroke="#1A2E35" d="m107.167,308.719c0,0 -4.954,8.524 -3.003,8.833c1.95,0.306 6.031,-7.063 6.031,-7.063l11.189,-2.966l-8.428,-0.87l-5.789,2.066z"/>
  <g id="svg_61" opacity="0.3">
   <g id="svg_62" opacity="0.3">
    <path id="svg_63" fill="black" d="m107.166,308.72c0,0 -4.954,8.524 -3.003,8.833c1.95,0.306 6.031,-7.063 6.031,-7.063l11.189,-2.966l-8.427,-0.87l-5.79,2.066z" opacity="0.3"/>
   </g>
   <g id="svg_64" opacity="0.3">
    <path id="svg_65" stroke-linejoin="round" stroke-linecap="round" stroke-miterlimit="10" stroke-width="1.33333" stroke="#1A2E35" d="m107.166,308.72c0,0 -4.954,8.524 -3.003,8.833c1.95,0.306 6.031,-7.063 6.031,-7.063l11.189,-2.966l-8.427,-0.87l-5.79,2.066z" opacity="0.3"/>
   </g>
  </g>
  <path id="svg_66" fill="white" d="m110.933,302.907c0,0 -6.927,-1.649 -8.839,1.604c-1.913,3.255 -7.5214,12.884 -5.4185,13.987c2.102,1.103 3.9335,-2.458 3.9335,-2.458l10.324,-13.133z"/>
  <path id="svg_67" stroke-linejoin="round" stroke-linecap="round" stroke-miterlimit="10" stroke-width="1.33333" stroke="#1A2E35" d="m110.933,302.907c0,0 -6.927,-1.649 -8.839,1.604c-1.913,3.255 -7.5214,12.884 -5.4185,13.987c2.102,1.103 3.9335,-2.458 3.9335,-2.458l10.324,-13.133z"/>
  <path id="svg_68" fill="white" d="m139.282,312.782c0,0 -6.953,2.627 -14.204,1.492l-7.887,2.621c0,0 -6.93,3.413 -10.154,1.692c-3.224,-1.721 8.216,-5.516 8.216,-5.516c0,0 7.695,-3.329 5.397,-4.128c-2.298,-0.801 -10.978,-0.65 -12.686,0.659c-1.707,1.309 -6.178,9.785 -9.4047,9.301c-3.2266,-0.482 1.3636,-5.098 2.5227,-6.875c1.159,-1.778 3.76,-8.863 9.031,-9.158c5.272,-0.296 23.009,0.613 23.009,0.613l20.859,-2.229l4.921,11.865l-19.62,-0.337z"/>
  <path id="svg_69" stroke-linejoin="round" stroke-linecap="round" stroke-miterlimit="10" stroke-width="1.33333" stroke="#1A2E35" d="m139.282,312.782c0,0 -6.953,2.627 -14.204,1.492l-7.887,2.621c0,0 -6.93,3.413 -10.154,1.692c-3.224,-1.721 8.216,-5.516 8.216,-5.516c0,0 7.695,-3.329 5.397,-4.128c-2.298,-0.801 -10.978,-0.65 -12.686,0.659c-1.707,1.309 -6.178,9.785 -9.4047,9.301c-3.2266,-0.482 1.3636,-5.098 2.5227,-6.875c1.159,-1.778 3.76,-8.863 9.031,-9.158c5.272,-0.296 23.009,0.613 23.009,0.613l20.859,-2.229l4.921,11.865l-19.62,-0.337z"/>
  <path id="svg_70" fill="#38BFF2" d="m150.168,315.72c1.009,0.637 2.435,1.041 3.978,-0.06c0,0 2.258,0.983 3.782,-0.695c1.526,-1.677 1.66,-16.339 -2.558,-17.992c-1.216,-0.476 -4.254,-0.427 -4.753,1.275c0,0 -2.621,-0.901 -3.065,1.909c-0.417,2.644 2.209,5.106 1.33,12.712c-0.13,1.125 0.379,2.28 1.286,2.851z"/>
  <path id="svg_71" stroke-linejoin="round" stroke-linecap="round" stroke-miterlimit="10" stroke-width="1.33333" stroke="#1A2E35" d="m150.168,315.72c1.009,0.637 2.435,1.041 3.978,-0.06c0,0 2.258,0.983 3.782,-0.695c1.526,-1.677 1.66,-16.339 -2.558,-17.992c-1.216,-0.476 -4.254,-0.427 -4.753,1.275c0,0 -2.621,-0.901 -3.065,1.909c-0.417,2.644 2.209,5.106 1.33,12.712c-0.13,1.125 0.379,2.28 1.286,2.851z"/>
  <g id="svg_72" opacity="0.3">
   <g id="svg_73" opacity="0.3">
    <path id="svg_74" fill="black" d="m150.169,315.72c1.008,0.636 2.434,1.04 3.977,-0.061c0,0 2.259,0.983 3.783,-0.695c1.525,-1.677 1.659,-16.339 -2.558,-17.991c-1.217,-0.476 -4.254,-0.427 -4.754,1.275c0,0 -2.621,-0.901 -3.065,1.909c-0.416,2.644 2.21,5.106 1.33,12.712c-0.13,1.125 0.379,2.279 1.287,2.851z" opacity="0.3"/>
   </g>
   <g id="svg_75" opacity="0.3">
    <path id="svg_76" stroke-linejoin="round" stroke-linecap="round" stroke-miterlimit="10" stroke-width="1.33333" stroke="#1A2E35" d="m150.169,315.72c1.008,0.636 2.434,1.04 3.977,-0.061c0,0 2.259,0.983 3.783,-0.695c1.525,-1.677 1.659,-16.339 -2.558,-17.991c-1.217,-0.476 -4.254,-0.427 -4.754,1.275c0,0 -2.621,-0.901 -3.065,1.909c-0.416,2.644 2.21,5.106 1.33,12.712c-0.13,1.125 0.379,2.279 1.287,2.851z" opacity="0.3"/>
   </g>
  </g>
  <path id="svg_77" stroke-linejoin="round" stroke-linecap="round" stroke-miterlimit="10" stroke-width="1.33333" stroke="#1A2E35" d="m154.981,312.301c0,0 0.123,-6.356 -2.492,-11.583"/>
  <path id="svg_78" fill="#38BFF2" d="m254.257,306.974c-0.698,5.373 -1.492,11.191 -2.399,17.507l-81.056,0l0.386,-10.444c-4.844,1.172 -14.259,0.453 -14.259,0.453l0,-15.439c5.723,-3.238 6.573,-2.331 6.573,-2.331c0,0 0.292,-37.678 3.721,-47.083c1.454,-3.984 4.003,-6.826 6.703,-8.82l0,-0.008c0.851,-0.633 1.71,-1.181 2.56,-1.653c0.047,-0.029 0.084,-0.048 0.123,-0.075c0.944,-0.502 2.086,-1.03 3.389,-1.577c0.113,-0.049 0.236,-0.096 0.359,-0.143c12.691,-5.184 40.388,-11.199 66.195,-0.169c1.803,0.773 16.535,7.808 17.791,17.979c0.717,5.797 -3.23,34.636 -10.086,51.803z"/>
  <g id="svg_79" opacity="0.2">
   <g id="svg_80" opacity="0.2">
    <path id="svg_81" fill="black" d="m241.416,260.524l-8.083,37.516c-1.256,-0.991 -4.873,-1.058 -9.472,-0.623c1.011,-1.123 1.832,-2.341 2.446,-3.664c12.219,-26.44 14.891,-32.7 15.109,-33.229z" opacity="0.2"/>
   </g>
  </g>
  <g id="svg_82" opacity="0.2">
   <g id="svg_83" opacity="0.2">
    <path id="svg_84" fill="black" d="m256.184,301.743c-2.341,8.348 -3.37,15.95 -4.325,22.738l-81.057,0l0.746,-12.029c5.051,-0.719 13.918,-1.454 23.125,-3.089c1.172,4.864 0.217,8.792 0.217,8.792c0,0 37.281,4.626 49.793,1.615c3.57,-0.859 6.799,-5.846 9.565,-12.71c0.671,-1.672 1.314,-3.456 1.936,-5.317z" opacity="0.2"/>
   </g>
  </g>
  <g id="svg_85" opacity="0.3">
   <g id="svg_86" opacity="0.3">
    <path id="svg_87" fill="black" d="m164.471,297.432c0,0 -1.815,-1.619 -7.546,1.624l0,15.439c0,0 9.446,-0.338 13.152,-2.344c3.188,1.972 2.621,-34.162 3.188,-53.626c-4.627,1.271 -4.998,10.077 -5.712,18.359c-0.986,11.416 -3.082,20.548 -3.082,20.548z" opacity="0.3"/>
   </g>
  </g>
  <path id="svg_88" stroke-linejoin="round" stroke-linecap="round" stroke-miterlimit="10" stroke-width="1.33333" stroke="#1A2E35" d="m254.257,306.974c-0.698,5.373 -1.492,11.19 -2.399,17.507l-81.057,0l0.387,-10.444c-4.845,1.172 -14.259,0.453 -14.259,0.453l0,-15.439c5.722,-3.238 6.573,-2.331 6.573,-2.331c0,0 0.292,-37.678 3.721,-47.083c1.454,-3.984 4.002,-6.827 6.703,-8.82l0,-0.009c0.851,-0.632 1.709,-1.18 2.56,-1.652c0.046,-0.029 0.084,-0.048 0.123,-0.076c0.944,-0.501 2.086,-1.029 3.389,-1.577c0.113,-0.048 0.236,-0.095 0.359,-0.142c12.691,-5.184 40.388,-11.199 66.195,-0.169c1.803,0.773 16.535,7.808 17.791,17.979c0.716,5.797 -3.23,34.636 -10.086,51.803z"/>
  <path id="svg_89" stroke-linejoin="round" stroke-linecap="round" stroke-miterlimit="10" stroke-width="1.33333" stroke="#1A2E35" d="m264.342,255.171c0.028,0.226 0.057,0.491 0.066,0.784c0.416,7.252 -3.531,34.616 -10.16,51.105c-2.767,6.865 -5.996,11.85 -9.566,12.71c-12.511,3.012 -49.792,-1.615 -49.792,-1.615c0,0 1.851,-7.649 -2.786,-14.825c0,0 36.601,-8.952 41.228,-5.289l8.101,-37.554"/>
  <path id="svg_90" stroke-linejoin="round" stroke-linecap="round" stroke-miterlimit="10" stroke-width="1.33333" stroke="#1A2E35" d="m235.88,300.086c0,0 3.474,1.39 6.485,5.559"/>
  <path id="svg_91" fill="white" d="m142.637,301.435c0,0 -3.41,-0.718 -4.8,0.835c-1.45,1.62 -7.335,10.493 -5.325,12.197c2.008,1.703 6.098,-7.643 6.098,-7.643l4.027,-5.389z"/>
  <path id="svg_92" stroke-linejoin="round" stroke-linecap="round" stroke-miterlimit="10" stroke-width="1.33333" stroke="#1A2E35" d="m142.637,301.435c0,0 -3.41,-0.718 -4.8,0.835c-1.45,1.62 -7.335,10.493 -5.325,12.197c2.008,1.703 6.098,-7.643 6.098,-7.643l4.027,-5.389z"/>
  <path id="svg_93" fill="white" d="m149.496,301.273c0,0 -7.583,-1.628 -9.282,0.688c-1.697,2.315 -11.253,14.282 -5.308,14.669l9.494,-10.655l5.096,-4.702z"/>
  <path id="svg_94" stroke-linejoin="round" stroke-linecap="round" stroke-miterlimit="10" stroke-width="1.33333" stroke="#1A2E35" d="m149.496,301.273c0,0 -7.583,-1.628 -9.282,0.688c-1.697,2.315 -11.253,14.282 -5.308,14.669l9.494,-10.655l5.096,-4.702z"/>
  <path id="svg_95" fill="#C0C0C0" d="m166.627,314.003c0,0 -7.79,1.699 -10.955,2.317c-3.166,0.616 -9.033,4.708 -12.507,3.088c-3.473,-1.622 11.349,-7.643 11.349,-7.643l5.094,-2.052l7.019,4.29z"/>
  <path id="svg_96" stroke-linejoin="round" stroke-linecap="round" stroke-miterlimit="10" stroke-width="1.33333" stroke="#1A2E35" d="m166.627,314.003c0,0 -7.79,1.699 -10.955,2.317c-3.166,0.616 -9.033,4.708 -12.507,3.088c-3.473,-1.622 11.349,-7.643 11.349,-7.643l5.094,-2.052l7.019,4.29z"/>
  <path id="svg_97" stroke-linejoin="round" stroke-linecap="round" stroke-miterlimit="10" stroke-width="1.33333" stroke="#1A2E35" d="m172.934,267.386c0.11,-2.954 0.221,-5.909 0.331,-8.862"/>
  <path id="svg_98" stroke-linejoin="round" stroke-linecap="round" stroke-miterlimit="10" stroke-width="1.33333" stroke="#1A2E35" d="m170.802,324.481c1.444,-17.875 1.982,-53.073 1.982,-53.073"/>
  <path id="svg_99" fill="white" d="m194.888,304.354l-26.865,0c0,0 -20.844,-6.253 -24.318,-1.39c-3.474,4.864 -10.884,12.275 -8.8,13.665c2.085,1.389 10.884,-8.685 10.884,-8.685l7.643,0.072c0,0 -6.485,2.822 -7.874,4.212c-1.389,1.39 -4.4,5.326 -2.779,6.022c1.621,0.694 6.716,-4.4 6.716,-4.4c0,0 7.643,-1.853 9.495,-0.928c1.853,0.928 9.264,4.632 19.222,1.853l20.5,2.548l-3.824,-12.969z"/>
  <path id="svg_100" stroke-linejoin="round" stroke-linecap="round" stroke-miterlimit="10" stroke-width="1.33333" stroke="#1A2E35" d="m194.888,304.354l-26.865,0c0,0 -20.844,-6.253 -24.318,-1.39c-3.474,4.864 -10.884,12.275 -8.8,13.665c2.085,1.389 10.884,-8.685 10.884,-8.685l7.643,0.072c0,0 -6.485,2.822 -7.874,4.212c-1.389,1.39 -4.4,5.326 -2.779,6.022c1.621,0.694 6.716,-4.4 6.716,-4.4c0,0 7.643,-1.853 9.495,-0.928c1.853,0.928 9.264,4.632 19.222,1.853l20.5,2.548l-3.824,-12.969z"/>
  <path id="svg_101" stroke-linejoin="round" stroke-linecap="round" stroke-miterlimit="10" stroke-width="1.33333" stroke="#1A2E35" d="m238.629,273.49c-0.736,-4.288 -0.773,-8.707 -0.085,-13.003"/>
  <path id="svg_102" stroke-linejoin="round" stroke-linecap="round" stroke-miterlimit="10" stroke-width="1.33333" stroke="#1A2E35" d="m244.723,250.97c0,0 13.033,-17.17 19.619,4.201"/>
  <path id="svg_103" fill="#38BFF2" d="m189.377,302.237c0.82,-0.865 2.1,-1.61 3.868,-0.928c0,0 1.943,-1.512 3.838,-0.267c1.893,1.247 5.663,15.415 1.989,18.062c-1.059,0.765 -4.014,1.471 -4.92,-0.052c0,0 -2.316,1.523 -3.444,-1.089c-1.061,-2.457 0.872,-5.494 -1.869,-12.644c-0.405,-1.057 -0.199,-2.302 0.538,-3.082z"/>
  <g id="svg_104" opacity="0.3">
   <g id="svg_105" opacity="0.3">
    <path id="svg_106" fill="black" d="m189.377,302.238c0.82,-0.866 2.101,-1.611 3.868,-0.928c0,0 1.944,-1.513 3.838,-0.267c1.893,1.247 5.664,15.415 1.989,18.062c-1.059,0.765 -4.014,1.471 -4.92,-0.052c0,0 -2.316,1.523 -3.444,-1.09c-1.06,-2.457 0.872,-5.494 -1.869,-12.644c-0.405,-1.056 -0.199,-2.301 0.538,-3.081z" opacity="0.3"/>
   </g>
  </g>
  <path id="svg_107" stroke-linejoin="round" stroke-linecap="round" stroke-miterlimit="10" stroke-width="1.33333" stroke="#1A2E35" d="m189.377,302.237c0.82,-0.866 2.101,-1.611 3.868,-0.928c0,0 1.944,-1.513 3.838,-0.267c1.893,1.247 5.664,15.415 1.989,18.062c-1.059,0.765 -4.014,1.471 -4.92,-0.052c0,0 -2.316,1.523 -3.444,-1.09c-1.06,-2.457 0.872,-5.493 -1.869,-12.644c-0.405,-1.056 -0.199,-2.301 0.538,-3.081z"/>
  <path id="svg_108" stroke-linejoin="round" stroke-linecap="round" stroke-miterlimit="10" stroke-width="1.33333" stroke="#1A2E35" d="m195.342,309.592c0.313,2.198 0.391,4.442 0.077,6.645"/>
  <path id="svg_109" fill="white" d="m207.154,267.187c-0.059,1.014 -0.927,1.789 -1.943,1.73c-1.014,-0.058 -1.788,-0.928 -1.73,-1.943c0.059,-1.014 0.929,-1.788 1.943,-1.73c1.014,0.059 1.788,0.929 1.73,1.943z"/>
  <path id="svg_110" stroke-linejoin="round" stroke-linecap="round" stroke-miterlimit="10" stroke-width="1.33333" stroke="#1A2E35" d="m207.154,267.187c-0.059,1.014 -0.927,1.789 -1.943,1.73c-1.014,-0.058 -1.788,-0.928 -1.73,-1.943c0.059,-1.014 0.929,-1.788 1.943,-1.73c1.014,0.059 1.788,0.929 1.73,1.943z"/>
  <path id="svg_111" fill="white" d="m205.829,295.698c-0.058,1.014 -0.927,1.789 -1.942,1.729c-1.014,-0.057 -1.789,-0.927 -1.731,-1.942c0.06,-1.014 0.929,-1.788 1.943,-1.731c1.015,0.06 1.789,0.929 1.73,1.944z"/>
  <path id="svg_112" stroke-linejoin="round" stroke-linecap="round" stroke-miterlimit="10" stroke-width="1.33333" stroke="#1A2E35" d="m205.829,295.698c-0.058,1.014 -0.927,1.789 -1.942,1.729c-1.014,-0.057 -1.789,-0.927 -1.731,-1.942c0.06,-1.014 0.929,-1.788 1.943,-1.731c1.015,0.06 1.789,0.929 1.73,1.944z"/>
  <path id="svg_113" fill="white" d="m222.69,232.259l-1.351,-19.023l-19.684,4.558l-1.049,15.278c-1.242,0.155 -2.424,0.329 -3.577,0.507l4.813,11.542l9.413,1.236l15.052,-13.872c-1.222,-0.091 -2.431,-0.169 -3.617,-0.226z"/>
  <path id="svg_114" fill="#1A2E35" d="m201.363,224.532c0.129,13.533 15.948,9.382 20.323,-4.137l-0.346,-7.16l-19.684,4.557l-0.293,6.74z"/>
  <path id="svg_115" stroke-linejoin="round" stroke-linecap="round" stroke-miterlimit="10" stroke-width="1.33333" stroke="#1A2E35" d="m222.69,232.258l-1.35,-19.023l-19.685,4.558l-1.049,15.278c-1.241,0.155 -2.424,0.329 -3.577,0.507l4.813,11.542l9.413,1.236l15.053,-13.872c-1.222,-0.091 -2.432,-0.169 -3.618,-0.226z"/>
  <path id="svg_116" fill="#1A2E35" d="m189.299,197.176c0,0 -7.189,-12.448 -8.255,-19.013c-3.29,-20.273 11.348,-13.432 11.348,-13.432c0,0 10.349,-9.264 23.239,-7.643c12.889,1.622 16.285,7.106 24.959,10.477c0,0 -6.512,33.062 -14.849,40.474c-8.337,7.411 -36.442,-10.863 -36.442,-10.863z"/>
  <path id="svg_117" stroke-linejoin="round" stroke-linecap="round" stroke-miterlimit="10" stroke-width="1.33333" stroke="#1A2E35" d="m189.299,197.176c0,0 -7.189,-12.448 -8.255,-19.013c-3.29,-20.273 11.348,-13.432 11.348,-13.432c0,0 10.349,-9.264 23.239,-7.643c12.889,1.622 16.285,7.106 24.959,10.477c0,0 -6.512,33.062 -14.849,40.474c-8.337,7.411 -36.442,-10.863 -36.442,-10.863z"/>
  <path id="svg_118" stroke-linejoin="round" stroke-linecap="round" stroke-miterlimit="10" stroke-width="1.33333" stroke="#1A2E35" d="m193.087,167.742c0,0 -3.243,-7.874 4.979,-13.896"/>
  <path id="svg_119" stroke-miterlimit="10" stroke-width="1.33333" stroke="#C0C0C0" d="m207.234,163.011c9.624,-4.254 13.912,2.86 24.653,4.731"/>
  <path id="svg_120" stroke-miterlimit="10" stroke-width="1.33333" stroke="#C0C0C0" d="m199.803,167.742c0.846,-1.114 1.948,-2.036 3.121,-2.791"/>
  <path id="svg_121" stroke-miterlimit="10" stroke-width="1.33333" stroke="#C0C0C0" d="m209.679,170.827c0,0 4.162,-4 12.423,1.197c4.526,2.846 8.249,3.252 8.249,3.252"/>
  <path id="svg_122" fill="white" d="m222.409,179.475c-11.979,0.309 -24.343,-5.095 -24.343,-5.095c-11.159,6.73 -9.502,17.677 -9.502,17.677c2.55,26.155 5.998,33.119 18.219,33.119c12.143,0 22.154,-13.181 22.949,-32.053c-4.624,0.219 -7.323,-13.648 -7.323,-13.648z"/>
  <path id="svg_123" stroke-linejoin="round" stroke-linecap="round" stroke-miterlimit="10" stroke-width="1.33333" stroke="#1A2E35" d="m222.409,179.475c-11.979,0.309 -24.343,-5.095 -24.343,-5.095c-11.159,6.73 -9.502,17.677 -9.502,17.677c2.55,26.155 5.998,33.119 18.219,33.119c12.143,0 22.154,-13.181 22.949,-32.053c-4.624,0.219 -7.323,-13.648 -7.323,-13.648z"/>
  <path id="svg_124" fill="white" d="m228.705,192.058c0.673,-0.869 1.526,-1.389 2.454,-1.389c2.174,0 3.782,2.857 3.011,6.369c-0.756,3.436 -1.762,6.37 -3.937,6.37c-1.022,0 -1.747,-0.629 -2.231,-1.661"/>
  <path id="svg_125" stroke-linejoin="round" stroke-linecap="round" stroke-miterlimit="10" stroke-width="1.33333" stroke="#1A2E35" d="m228.705,192.058c0.673,-0.869 1.526,-1.389 2.454,-1.389c2.174,0 3.782,2.857 3.011,6.369c-0.756,3.436 -1.762,6.37 -3.937,6.37c-1.022,0 -1.747,-0.629 -2.231,-1.661"/>
  <path id="svg_126" stroke-linejoin="round" stroke-linecap="round" stroke-width="1.33333" stroke="#1A2E35" d="m204.902,204.895c0,0 1.462,2.004 -1.34,3.508c-2.801,1.503 -5.04,1.472 -5.756,-0.246c-0.716,-1.718 2.403,-16.032 2.403,-16.032"/>
  <path id="svg_127" stroke-linejoin="round" stroke-linecap="round" stroke-width="1.33333" stroke="#1A2E35" d="m199.735,194.395c-1.511,-0.764 -7.564,-3.408 -13.296,0.199l0.369,5.552c0,0 2.115,1.162 6.969,1.162c2.19,0 3.72,-0.236 4.73,-0.491"/>
  <path id="svg_128" stroke-linejoin="round" stroke-linecap="round" stroke-width="1.33333" stroke="#1A2E35" d="m204.75,194.597l1.756,5.788c0,0 0.718,0.944 5.581,0.944c4.863,0 6.459,-1.161 6.459,-1.161l-0.142,-5.552c0,0 -7.054,-4.184 -13.654,-0.019z"/>
  <path id="svg_129" stroke-linejoin="round" stroke-linecap="round" stroke-width="1.33333" stroke="#1A2E35" d="m200.123,194.597l4.627,0"/>
  <path id="svg_130" stroke-linejoin="round" stroke-linecap="round" stroke-width="1.33333" stroke="#1A2E35" d="m201.107,213.65c0,0 3.773,1.244 7.696,-0.234c3.171,-1.194 4.789,-3.609 4.789,-3.609"/>
  <path id="svg_131" stroke-linejoin="round" stroke-linecap="round" stroke-width="1.33333" stroke="#1A2E35" d="m208.798,189.119c6.074,-2.505 8.753,0.501 8.753,0.501"/>
  <path id="svg_132" stroke-linejoin="round" stroke-linecap="round" stroke-width="1.33333" stroke="#1A2E35" d="m192.776,188.873c2.128,-1.021 4.653,-0.73 6.493,0.747"/>
  <path id="svg_133" fill="#1A2E35" d="m211.218,193.341c0.562,0 0.961,0.899 0.961,2.045c0,1.145 -0.47,2.045 -1.022,2.045c-0.552,0 -0.952,-0.94 -0.952,-2.045c0.021,-1.114 0.45,-2.045 1.013,-2.045z"/>
  <path id="svg_134" fill="#1A2E35" d="m196.14,193.085c0.552,0 0.951,0.9 0.951,2.046c0,1.145 -0.47,2.045 -1.023,2.045c-0.552,0 -0.951,-0.941 -0.951,-2.045c0.032,-1.104 0.471,-2.046 1.023,-2.046z"/>
  <path id="svg_135" stroke-miterlimit="10" stroke-width="1.33333" stroke="#C0C0C0" d="m186.069,182.66c0.217,1.106 0.491,2.215 0.942,3.25"/>
  <path id="svg_136" stroke-miterlimit="10" stroke-width="1.33333" stroke="#C0C0C0" d="m193.318,170.187c-5.968,-1.606 -8.331,1.981 -7.889,7.642"/>
  <path id="svg_137" fill="#38BFF2" d="m199.631,232.19l7.274,13.086l17.461,-13.78l5.365,0.753l-11.296,19.976c-0.437,0.757 -1.416,0.999 -2.154,0.533l-9.658,-6.093l-7.532,4.603c-0.962,0.588 -2.209,-0.024 -2.332,-1.144l-1.87,-17.046l4.742,-0.888z"/>
  <g id="svg_138" opacity="0.3">
   <g id="svg_139" opacity="0.3">
    <path id="svg_140" fill="black" d="m198.992,232.101l7.913,13.175l17.765,-14.021l5.35,0.846l-11.585,20.124c-0.437,0.757 -1.416,0.999 -2.154,0.534l-9.658,-6.094l-7.532,4.604c-0.962,0.588 -2.209,-0.025 -2.332,-1.145l-1.87,-17.045l4.103,-0.978z" opacity="0.3"/>
   </g>
  </g>
  <path id="svg_141" stroke-linejoin="round" stroke-linecap="round" stroke-miterlimit="10" stroke-width="1.33333" stroke="#1A2E35" d="m199.631,232.19l7.274,13.086l17.461,-13.78l5.365,0.754l-11.297,19.975c-0.436,0.758 -1.415,0.999 -2.153,0.534l-9.659,-6.094l-7.531,4.604c-0.962,0.588 -2.209,-0.024 -2.333,-1.145l-1.869,-17.045l4.742,-0.889z"/>
  <path id="svg_142" fill="#1A2E35" d="m138.843,324.481l-47.4764,0c-1.0274,0 -1.8603,-0.833 -1.8603,-1.86l0,-2.61c0,-1.028 0.8329,-1.861 1.8603,-1.861l47.4764,0l0,6.331z"/>
  <path id="svg_143" stroke-linejoin="round" stroke-linecap="round" stroke-miterlimit="10" stroke-width="1.33333" stroke="#1A2E35" d="m138.843,324.481l-47.4764,0c-1.0274,0 -1.8603,-0.833 -1.8603,-1.86l0,-2.61c0,-1.028 0.8329,-1.861 1.8603,-1.861l47.4764,0l0,6.331z"/>
  <path id="svg_144" fill="#38BFF2" d="m179.699,324.481l-40.856,0l0,-6.331l40.941,2.7c0.68,0.044 1.209,0.609 1.209,1.29l0,1.047c0,0.715 -0.58,1.294 -1.294,1.294z"/>
  <path id="svg_145" stroke-linejoin="round" stroke-linecap="round" stroke-miterlimit="10" stroke-width="1.33333" stroke="#1A2E35" d="m179.699,324.481l-40.856,0l0,-6.331l40.941,2.7c0.68,0.044 1.209,0.609 1.209,1.29l0,1.047c0,0.715 -0.58,1.294 -1.294,1.294z"/>
  <path id="svg_146" stroke-linejoin="round" stroke-linecap="round" stroke-width="1.33333" stroke="#1A2E35" d="m218.427,195.526l10.279,-3.468l-1.219,1.538"/>
  <path id="svg_147" fill="#1A2E35" d="m284.236,207.347c0,0 -11.829,-36.122 17.921,-38.657c29.751,-2.534 33.262,25.195 35.99,39.097c2.132,10.866 22.454,30.747 6.727,45.582c-16.42,15.49 -56.399,10.323 -58.697,-11.702c-2.298,-22.026 -0.206,-26.535 -1.941,-34.32z"/>
  <path id="svg_148" stroke-linejoin="round" stroke-linecap="round" stroke-miterlimit="10" stroke-width="1.33333" stroke="#1A2E35" d="m284.236,207.347c0,0 -11.829,-36.122 17.921,-38.657c29.751,-2.534 33.262,25.195 35.99,39.097c2.132,10.866 22.454,30.747 6.727,45.582c-16.42,15.49 -56.399,10.323 -58.697,-11.702c-2.298,-22.026 -0.206,-26.535 -1.941,-34.32z"/>
  <path id="svg_149" fill="white" d="m318.954,213.098c0,0 -1.302,16.021 6.965,29.802c0,0 -11.137,3.628 -22.751,0.177c0.486,-4.254 0.25,-8.559 -0.698,-12.734l-0.397,-1.745l8.443,-7.303l8.438,-8.197z"/>
  <path id="svg_150" fill="#1A2E35" d="m298.517,225.177c1.536,8.623 2.95,10.5 10.251,8.963c5.416,-1.141 10.032,-9.263 10.293,-15.162c-0.414,-3.588 -0.384,-8.064 -0.384,-8.064l-8.16,10.381l-12,3.882z"/>
  <path id="svg_151" stroke-linejoin="round" stroke-linecap="round" stroke-miterlimit="10" stroke-width="1.33333" stroke="#1A2E35" d="m318.955,213.098c0,0 -1.302,16.021 6.965,29.802c0,0 -11.137,3.628 -22.751,0.178c0.485,-4.254 0.249,-8.559 -0.699,-12.735l-0.396,-1.745l8.443,-7.303l8.438,-8.197z"/>
  <path id="svg_152" fill="white" d="m236.105,304.782c0,0 -16.477,-7.574 -17.395,-1.299c-0.919,6.276 3.102,15.896 18.191,11.151l31.656,4.173c0,0 5.421,-10.794 -0.373,-16.678c0,0 -27.893,4.338 -32.079,2.653z"/>
  <path id="svg_153" stroke-linejoin="round" stroke-linecap="round" stroke-miterlimit="10" stroke-width="1.33333" stroke="#1A2E35" d="m236.105,304.782c0,0 -16.477,-7.574 -17.395,-1.299c-0.919,6.276 3.102,15.896 18.191,11.151l31.656,4.173c0,0 5.421,-10.794 -0.373,-16.678c0,0 -27.893,4.338 -32.079,2.653z"/>
  <path id="svg_154" fill="white" d="m210.718,311.547c0,0 -2.611,0.836 -2.993,2.563c-0.38,1.726 -1.231,4.176 -0.226,4.184c1.003,0.006 2.216,-3.438 2.216,-3.438l2.539,-0.659l-1.536,-2.65z"/>
  <path id="svg_155" stroke-linejoin="round" stroke-linecap="round" stroke-miterlimit="10" stroke-width="1.33333" stroke="#1A2E35" d="m210.718,311.547c0,0 -2.611,0.836 -2.993,2.563c-0.38,1.726 -1.231,4.176 -0.226,4.184c1.003,0.006 2.216,-3.438 2.216,-3.438l2.539,-0.659l-1.536,-2.65z"/>
  <path id="svg_156" fill="white" d="m230.527,319.541l-17.127,1.794l-2.556,-24.398l17.128,-1.795l2.555,24.399z"/>
  <path id="svg_157" stroke-linejoin="round" stroke-linecap="round" stroke-miterlimit="10" stroke-width="1.33333" stroke="#1A2E35" d="m230.527,319.541l-17.127,1.794l-2.556,-24.398l17.128,-1.795l2.555,24.399z"/>
  <path id="svg_158" fill="#38BFF2" d="m208.286,297.204l2.556,24.399l2.558,-0.267l-2.556,-24.4l-2.558,0.268z"/>
  <path id="svg_159" stroke-linejoin="round" stroke-linecap="round" stroke-miterlimit="10" stroke-width="1.33333" stroke="#1A2E35" d="m208.286,297.204l2.556,24.399l2.558,-0.267l-2.556,-24.4l-2.558,0.268z"/>
  <path id="svg_160" fill="white" d="m223.369,291.611c-2.046,0.214 -3.535,2.052 -3.322,4.097c0.01,0.09 0.036,0.172 0.052,0.258l0.865,-0.09l0.917,-0.096c-0.021,-0.085 -0.044,-0.169 -0.054,-0.258c-0.111,-1.064 0.663,-2.021 1.728,-2.132c1.063,-0.111 2.019,0.663 2.131,1.728c0.074,0.713 -0.253,1.37 -0.795,1.764c0.117,0.397 0.466,0.909 1.442,1.11c0.797,-0.77 1.256,-1.876 1.133,-3.06c-0.215,-2.046 -2.053,-3.537 -4.097,-3.321z"/>
  <path id="svg_161" stroke-linejoin="round" stroke-linecap="round" stroke-miterlimit="10" stroke-width="1.33333" stroke="#1A2E35" d="m223.369,291.611c-2.046,0.214 -3.535,2.052 -3.322,4.097c0.01,0.09 0.036,0.172 0.052,0.258l0.865,-0.09l0.917,-0.096c-0.021,-0.085 -0.044,-0.169 -0.054,-0.258c-0.111,-1.064 0.663,-2.021 1.728,-2.132c1.063,-0.111 2.019,0.663 2.131,1.728c0.074,0.713 -0.253,1.37 -0.795,1.764c0.117,0.397 0.466,0.909 1.442,1.11c0.797,-0.77 1.256,-1.876 1.133,-3.06c-0.215,-2.046 -2.053,-3.537 -4.097,-3.321z"/>
  <path id="svg_162" stroke-linejoin="round" stroke-linecap="round" stroke-miterlimit="10" stroke-width="1.33333" stroke="#1A2E35" d="m214.072,301.994l5.895,-0.616"/>
  <path id="svg_163" stroke-linejoin="round" stroke-linecap="round" stroke-miterlimit="10" stroke-width="1.33333" stroke="#1A2E35" d="m214.355,304.683l11.455,-1.2"/>
  <path id="svg_164" stroke-linejoin="round" stroke-linecap="round" stroke-miterlimit="10" stroke-width="1.33333" stroke="#1A2E35" d="m214.636,307.373l5.727,-0.601"/>
  <path id="svg_165" stroke-linejoin="round" stroke-linecap="round" stroke-miterlimit="10" stroke-width="1.33333" stroke="#1A2E35" d="m214.918,310.061l9.565,-1.003"/>
  <path id="svg_166" stroke-linejoin="round" stroke-linecap="round" stroke-miterlimit="10" stroke-width="1.33333" stroke="#1A2E35" d="m215.199,312.75l5.728,-0.6"/>
  <path id="svg_167" stroke-linejoin="round" stroke-linecap="round" stroke-miterlimit="10" stroke-width="1.33333" stroke="#1A2E35" d="m215.48,315.439l12.569,-1.317"/>
  <path id="svg_168" stroke-linejoin="round" stroke-linecap="round" stroke-miterlimit="10" stroke-width="1.33333" stroke="#1A2E35" d="m215.763,318.127l5.894,-0.616"/>
  <path id="svg_169" fill="white" d="m220.198,291.943c-2.044,0.214 -3.534,2.052 -3.32,4.097c0.009,0.091 0.036,0.174 0.052,0.262l0.866,-0.09l-0.001,-0.004l0.917,-0.096c-0.022,-0.085 -0.045,-0.169 -0.055,-0.258c-0.111,-1.064 0.664,-2.021 1.727,-2.132c1.064,-0.11 2.021,0.664 2.132,1.728c0.075,0.713 -0.253,1.37 -0.795,1.764c0.117,0.398 0.467,0.909 1.442,1.111c0.796,-0.771 1.257,-1.877 1.133,-3.061c-0.215,-2.045 -2.053,-3.536 -4.098,-3.321z"/>
  <path id="svg_170" stroke-linejoin="round" stroke-linecap="round" stroke-miterlimit="10" stroke-width="1.33333" stroke="#1A2E35" d="m220.198,291.943c-2.044,0.214 -3.534,2.052 -3.32,4.097c0.009,0.091 0.036,0.174 0.052,0.262l0.866,-0.09l-0.001,-0.004l0.917,-0.096c-0.022,-0.085 -0.045,-0.169 -0.055,-0.258c-0.111,-1.064 0.664,-2.021 1.727,-2.132c1.064,-0.11 2.021,0.664 2.132,1.728c0.075,0.713 -0.253,1.37 -0.795,1.764c0.117,0.398 0.467,0.909 1.442,1.111c0.796,-0.771 1.257,-1.877 1.133,-3.061c-0.215,-2.045 -2.053,-3.536 -4.098,-3.321z"/>
  <path id="svg_171" fill="white" d="m217.029,292.275c-2.045,0.214 -3.535,2.052 -3.32,4.098c0.009,0.088 0.036,0.171 0.052,0.257l0.865,-0.09l0.916,-0.096c-0.021,-0.085 -0.045,-0.169 -0.054,-0.258c-0.112,-1.064 0.663,-2.021 1.727,-2.132c1.064,-0.111 2.021,0.663 2.132,1.728c0.075,0.713 -0.253,1.37 -0.795,1.764c0.117,0.397 0.466,0.909 1.441,1.11c0.797,-0.771 1.258,-1.876 1.133,-3.06c-0.214,-2.046 -2.052,-3.536 -4.097,-3.321z"/>
  <path id="svg_172" stroke-linejoin="round" stroke-linecap="round" stroke-miterlimit="10" stroke-width="1.33333" stroke="#1A2E35" d="m217.029,292.275c-2.045,0.214 -3.535,2.052 -3.32,4.098c0.009,0.088 0.036,0.171 0.052,0.257l0.865,-0.09l0.916,-0.096c-0.021,-0.085 -0.045,-0.169 -0.054,-0.258c-0.112,-1.064 0.663,-2.021 1.727,-2.132c1.064,-0.111 2.021,0.663 2.132,1.728c0.075,0.713 -0.253,1.37 -0.795,1.764c0.117,0.397 0.466,0.909 1.441,1.11c0.797,-0.771 1.258,-1.876 1.133,-3.06c-0.214,-2.046 -2.052,-3.536 -4.097,-3.321z"/>
  <path id="svg_173" fill="white" d="m213.859,292.607c-2.045,0.214 -3.534,2.053 -3.321,4.098c0.009,0.089 0.036,0.171 0.052,0.257l0.866,-0.09l0.916,-0.096c-0.021,-0.085 -0.045,-0.169 -0.054,-0.258c-0.112,-1.064 0.663,-2.021 1.727,-2.131c1.064,-0.112 2.021,0.663 2.131,1.727c0.075,0.713 -0.253,1.37 -0.794,1.764c0.116,0.397 0.466,0.909 1.441,1.11c0.797,-0.77 1.258,-1.876 1.133,-3.06c-0.214,-2.045 -2.053,-3.535 -4.097,-3.321z"/>
  <path id="svg_174" stroke-linejoin="round" stroke-linecap="round" stroke-miterlimit="10" stroke-width="1.33333" stroke="#1A2E35" d="m213.859,292.607c-2.045,0.214 -3.534,2.053 -3.321,4.098c0.009,0.089 0.036,0.171 0.052,0.257l0.866,-0.09l0.916,-0.096c-0.021,-0.085 -0.045,-0.169 -0.054,-0.258c-0.112,-1.064 0.663,-2.021 1.727,-2.131c1.064,-0.112 2.021,0.663 2.131,1.727c0.075,0.713 -0.253,1.37 -0.794,1.764c0.116,0.397 0.466,0.909 1.441,1.11c0.797,-0.77 1.258,-1.876 1.133,-3.06c-0.214,-2.045 -2.053,-3.535 -4.097,-3.321z"/>
  <path id="svg_175" fill="white" d="m209.149,296.85c-0.112,-1.064 0.663,-2.021 1.727,-2.131c1.064,-0.112 2.02,0.663 2.131,1.727c0.075,0.713 -0.254,1.37 -0.795,1.765c0.117,0.396 0.466,0.909 1.442,1.109c0.797,-0.769 1.257,-1.875 1.133,-3.06c-0.214,-2.045 -2.053,-3.535 -4.097,-3.321c-2.046,0.214 -3.535,2.053 -3.321,4.098c0.096,0.91 0.525,1.699 1.139,2.288l-0.222,-2.121l0.917,-0.096c-0.022,-0.084 -0.045,-0.168 -0.054,-0.258z"/>
  <path id="svg_176" stroke-linejoin="round" stroke-linecap="round" stroke-miterlimit="10" stroke-width="1.33333" stroke="#1A2E35" d="m209.149,296.85c-0.112,-1.064 0.663,-2.021 1.727,-2.131c1.064,-0.112 2.02,0.663 2.131,1.727c0.075,0.713 -0.254,1.37 -0.795,1.765c0.117,0.396 0.466,0.909 1.442,1.109c0.797,-0.769 1.257,-1.875 1.133,-3.06c-0.214,-2.045 -2.053,-3.535 -4.097,-3.321c-2.046,0.214 -3.535,2.053 -3.321,4.098c0.096,0.91 0.525,1.699 1.139,2.288l-0.222,-2.121l0.917,-0.096c-0.022,-0.084 -0.045,-0.168 -0.054,-0.258z"/>
  <path id="svg_177" fill="white" d="m206.304,303.76c0.148,0.326 0.333,0.67 0.561,1.031c0,0 -0.67,1.989 0.675,3.847c0,0 0.08,2.69 1.033,3.114c0.954,0.425 2.472,0.941 2.445,0.194c-0.027,-0.746 -0.475,-3.018 -2.187,-3.519c0,0 1.974,0.393 1.751,-0.708c-0.223,-1.101 -0.591,-2.677 -1.799,-3.129l-0.652,-0.288c0,0 1.561,0.288 1.437,-0.899c-0.125,-1.186 -0.267,-2.563 -1.161,-2.898c-0.208,-0.078 -0.447,-0.146 -0.692,-0.203c-1.326,-0.313 -2.176,1.77 -1.411,3.458z"/>
  <path id="svg_178" stroke-linejoin="round" stroke-linecap="round" stroke-miterlimit="10" stroke-width="1.33333" stroke="#1A2E35" d="m206.304,303.76c0.148,0.326 0.333,0.67 0.561,1.031c0,0 -0.67,1.989 0.675,3.847c0,0 0.08,2.69 1.033,3.114c0.954,0.425 2.472,0.941 2.445,0.194c-0.027,-0.746 -0.475,-3.018 -2.187,-3.519c0,0 1.974,0.393 1.751,-0.708c-0.223,-1.101 -0.591,-2.677 -1.799,-3.129l-0.652,-0.288c0,0 1.561,0.288 1.437,-0.899c-0.125,-1.186 -0.267,-2.563 -1.161,-2.898c-0.208,-0.078 -0.447,-0.146 -0.692,-0.203c-1.326,-0.313 -2.176,1.77 -1.411,3.458z"/>
  <path id="svg_179" fill="white" d="m234.257,304.571c0,0 -1.837,-4.075 -4.857,-6.2c-3.019,-2.124 -4.137,-6.262 -5.367,-5.256c-1.23,1.007 -0.111,5.385 1.789,6.886c1.901,1.501 -0.224,4.856 4.474,8.994"/>
  <path id="svg_180" stroke-linejoin="round" stroke-linecap="round" stroke-miterlimit="10" stroke-width="1.33333" stroke="#1A2E35" d="m234.257,304.571c0,0 -1.837,-4.075 -4.857,-6.2c-3.019,-2.124 -4.137,-6.262 -5.367,-5.256c-1.23,1.007 -0.111,5.385 1.789,6.886c1.901,1.501 -0.224,4.856 4.474,8.994"/>
  <path id="svg_181" fill="#38BFF2" d="m345.182,316.483c-0.414,2.568 -0.858,5.231 -1.33,7.998l-64.76,0c-0.105,-0.869 0.51,-2.616 1.095,-5.656c-7.215,2.446 -19.802,-1.351 -19.802,-1.351c1.568,-4.126 0.482,-14.608 0.482,-14.608l7.346,-1.558c0,0 3.051,-31.936 5.374,-41.086c2.464,-9.707 15.95,-20.306 61.303,-17.176c0,0 20.927,-0.396 24.175,13.475c3.031,12.936 -13.014,59.367 -13.883,59.962z"/>
  <g id="svg_182" opacity="0.2">
   <g id="svg_183" opacity="0.2">
    <path id="svg_184" fill="black" d="m280.188,318.827c-5.014,1.699 -12.615,0.386 -16.789,-0.576c1.085,-0.831 1.766,-2.531 2.02,-4.684c3.4,-0.53 6.8,-5.931 9.038,-30.483c0.528,-5.759 1.661,-9.375 3.115,-11.812c-1.218,4.938 -1.746,10.471 -0.169,16.884c0.811,3.296 3.361,11.227 3.589,14.514c0.518,7.487 -0.134,12.672 -0.804,16.157z" opacity="0.2"/>
   </g>
  </g>
  <g id="svg_185" opacity="0.2">
   <g id="svg_186" opacity="0.2">
    <path id="svg_187" fill="black" d="m345.174,316.492c-0.406,2.57 -0.849,5.232 -1.321,7.989l-64.76,0c1.161,-3.55 4.014,-20.453 -0.01,-30.727c-0.161,-0.416 13.909,-6.326 23.333,-3.909c39.945,10.245 26.185,-22.767 37.592,-28.772l-9.839,38.593l-5.373,1.708c11.634,0.718 8.272,18.16 8.272,18.16c5.458,0.887 9.953,-1.55 12.106,-3.042z" opacity="0.2"/>
   </g>
  </g>
  <path id="svg_188" stroke-linejoin="round" stroke-linecap="round" stroke-miterlimit="10" stroke-width="1.33333" stroke="#1A2E35" d="m345.183,316.483c-0.414,2.568 -0.858,5.231 -1.33,7.998l-64.759,0c-0.105,-0.869 0.509,-2.616 1.094,-5.656c-7.214,2.446 -19.802,-1.351 -19.802,-1.351c1.568,-4.126 0.482,-14.608 0.482,-14.608l7.346,-1.558c0,0 3.051,-31.936 5.374,-41.086c2.464,-9.707 15.95,-20.306 61.303,-17.176c0,0 20.927,-0.396 24.175,13.475c3.031,12.936 -13.014,59.367 -13.883,59.962z"/>
  <path id="svg_189" fill="#38BFF2" d="m262.049,301.066c0,0 2.452,1.311 3.253,7.082c0.801,5.771 -0.431,10.738 -3.635,10.658c-3.206,-0.08 -3.761,-1.335 -3.114,-2.52c0.646,-1.186 2.059,-2.788 0.991,-7.722c-1.341,-6.187 -4.096,-5.623 -4.096,-5.623c0,0 3.678,-3.519 6.601,-1.875z"/>
  <path id="svg_190" stroke-linejoin="round" stroke-linecap="round" stroke-miterlimit="10" stroke-width="1.33333" stroke="#1A2E35" d="m262.049,301.066c0,0 2.452,1.311 3.253,7.082c0.801,5.771 -0.431,10.738 -3.635,10.658c-3.206,-0.08 -3.761,-1.335 -3.114,-2.52c0.646,-1.186 2.059,-2.788 0.991,-7.722c-1.341,-6.187 -4.096,-5.623 -4.096,-5.623c0,0 3.678,-3.519 6.601,-1.875l0,0z"/>
  <g id="svg_191" opacity="0.2">
   <g id="svg_192" opacity="0.2">
    <path id="svg_193" fill="black" d="m265.42,313.566c-0.255,2.153 -0.935,3.853 -2.021,4.683c-0.491,0.378 -1.067,0.577 -1.728,0.558c-3.21,-0.076 -3.767,-1.332 -3.116,-2.522c0.642,-1.18 2.059,-2.785 0.992,-7.724c-1.341,-6.186 -4.099,-5.619 -4.099,-5.619c0,0 3.683,-3.522 6.601,-1.879c0,0 2.455,1.312 3.258,7.083c0.264,1.954 0.302,3.815 0.113,5.42z" opacity="0.2"/>
   </g>
  </g>
  <path id="svg_194" fill="#38BFF2" d="m323.741,231.496c0,0 -16.283,4.937 -23.689,2.304l-1.535,9.885c0,0 7.2,6.275 30.284,-1.438l-5.06,-10.751z"/>
  <path id="svg_195" stroke-linejoin="round" stroke-linecap="round" stroke-miterlimit="10" stroke-width="1.33333" stroke="#1A2E35" d="m323.741,231.496c0,0 -16.283,4.937 -23.689,2.304l-1.535,9.885c0,0 7.2,6.275 30.284,-1.438l-5.06,-10.751z"/>
  <path id="svg_196" fill="#38BFF2" d="m265.891,298.181c1.935,6.303 3.666,11.363 1.955,11.888c-1.71,0.526 -3.116,-4.634 -5.052,-10.937c-1.936,-6.303 -3.667,-11.362 -1.957,-11.888c1.711,-0.525 3.118,4.633 5.054,10.937z"/>
  <path id="svg_197" stroke-linejoin="round" stroke-linecap="round" stroke-miterlimit="10" stroke-width="1.33333" stroke="#1A2E35" d="m265.891,298.181c1.935,6.303 3.666,11.363 1.955,11.888c-1.71,0.526 -3.116,-4.634 -5.052,-10.937c-1.936,-6.303 -3.667,-11.362 -1.957,-11.888c1.711,-0.525 3.118,4.633 5.054,10.937z"/>
  <path id="svg_198" fill="#1A2E35" d="m262.547,298.332l3.099,-0.951c-0.454,-1.488 -0.88,-2.895 -1.289,-4.166l-3.081,0.945c0.375,1.282 0.812,2.686 1.271,4.172z"/>
  <path id="svg_199" stroke-linejoin="round" stroke-linecap="round" stroke-miterlimit="10" stroke-width="1.33333" stroke="#1A2E35" d="m262.265,290.231c0,0 1.448,-2.901 2.779,-0.852c1.331,2.047 1.606,8.273 2.544,8.281"/>
  <path id="svg_200" stroke-linejoin="round" stroke-linecap="round" stroke-miterlimit="10" stroke-width="1.33333" stroke="#1A2E35" d="m281.472,259.382c-1.18,3.617 -2.813,7.517 -3.9,11.889c-1.218,4.938 -1.746,10.472 -0.17,16.884c0.813,3.295 3.362,11.226 3.589,14.513c0.519,7.489 -0.132,12.673 -0.803,16.157c-0.584,3.041 -1.199,4.788 -1.095,5.655"/>
  <path id="svg_201" fill="white" d="m321.554,302.448c0,0 -26.342,3.599 -35.224,3.802c-1.366,0.031 -5.442,-0.474 -5.442,-0.474l-6.315,-4.223c0,0 -4.867,-0.721 -7.254,-0.174l-2.718,3.554c0,0 -3.395,1.093 -1.456,3.665c0,0 -0.746,1.975 0.894,3.467c0,0 0.149,2.237 1.64,3.131c0,0 0.299,2.087 1.939,2.684c1.64,0.596 11.928,-1.045 15.058,-1.939c3.133,-0.894 33.548,3.877 45.476,3.579c0,0 10.214,-11.928 -6.598,-17.072z"/>
  <path id="svg_202" stroke-linejoin="round" stroke-linecap="round" stroke-miterlimit="10" stroke-width="1.33333" stroke="#1A2E35" d="m321.554,302.448c0,0 -26.342,3.599 -35.224,3.802c-1.366,0.031 -5.442,-0.474 -5.442,-0.474l-6.315,-4.223c0,0 -4.867,-0.721 -7.254,-0.174l-2.718,3.554c0,0 -3.395,1.093 -1.456,3.665c0,0 -0.746,1.975 0.894,3.467c0,0 0.149,2.237 1.64,3.131c0,0 0.299,2.087 1.939,2.684c1.64,0.596 11.928,-1.045 15.058,-1.939c3.133,-0.894 33.548,3.877 45.476,3.579c0,0 10.214,-11.928 -6.598,-17.072l0,0z"/>
  <path id="svg_203" fill="white" d="m321.967,202.696c0,0 -6.954,2.714 -11.07,-4.782c-1.783,-3.25 -5.394,-10.027 -5.394,-10.027c-1.027,2.656 0.234,6.701 0.234,6.701c-2.354,-1.033 -6.91,-1.276 -6.91,-1.276c-1.616,-2.707 -2.087,-8.838 -2.087,-8.838c-2.238,3.737 -1.59,9.1 -1.59,9.1c-4.781,0.663 -7.735,2.291 -9.912,4.197c0.592,2.409 0.808,6.164 0.609,13.968c-0.257,10.197 4.642,12.988 9.413,16.799c4.772,3.81 17.859,5.786 22.372,-14.141c0,0 9.464,-3.52 4.833,-10.914c-0.157,-0.251 -0.323,-0.514 -0.498,-0.787z"/>
  <path id="svg_204" stroke-linejoin="round" stroke-linecap="round" stroke-miterlimit="10" stroke-width="1.33333" stroke="#1A2E35" d="m321.967,202.696c0,0 -6.954,2.714 -11.07,-4.782c-1.783,-3.25 -5.394,-10.027 -5.394,-10.027c-1.027,2.656 0.234,6.701 0.234,6.701c-2.354,-1.033 -6.91,-1.276 -6.91,-1.276c-1.616,-2.707 -2.087,-8.838 -2.087,-8.838c-2.238,3.737 -1.59,9.1 -1.59,9.1c-4.781,0.663 -7.735,2.291 -9.912,4.197c0.592,2.409 0.808,6.164 0.609,13.968c-0.257,10.197 4.642,12.988 9.413,16.799c4.772,3.81 17.859,5.786 22.372,-14.141c0,0 9.464,-3.52 4.833,-10.914c-0.157,-0.251 -0.323,-0.514 -0.498,-0.787z"/>
  <path id="svg_205" stroke-miterlimit="10" stroke-width="1.33333" stroke="#C0C0C0" d="m314.224,190.466c2.976,6.098 8.156,10.794 14.794,12.521"/>
  <path id="svg_206" stroke-miterlimit="10" stroke-width="1.33333" stroke="#C0C0C0" d="m311.74,182.915c0.2,1.239 0.525,2.459 0.911,3.65"/>
  <path id="svg_207" stroke-miterlimit="10" stroke-width="1.33333" stroke="#C0C0C0" d="m316.457,183.369c0,0 5.36,10.236 13.747,10.48"/>
  <path id="svg_208" stroke-miterlimit="10" stroke-width="1.33333" stroke="#C0C0C0" d="m332.901,209.404c0,0 13.641,22.092 13.641,34.95"/>
  <path id="svg_209" stroke-miterlimit="10" stroke-width="1.33333" stroke="#C0C0C0" d="m329.289,215.293c0,0 3.376,12.325 8.799,18.507"/>
  <path id="svg_210" stroke-miterlimit="10" stroke-width="1.33333" stroke="#C0C0C0" d="m286.41,183.255c-0.378,1.662 -0.656,3.498 -0.805,5.526"/>
  <path id="svg_211" stroke-miterlimit="10" stroke-width="1.33333" stroke="#C0C0C0" d="m297.579,171.678c0,0 -6.35,1.193 -10.498,8.678"/>
  <path id="svg_212" stroke-miterlimit="10" stroke-width="1.33333" stroke="#C0C0C0" d="m289.54,228.896c0,0 -0.209,9.911 4.848,15.478"/>
  <path id="svg_213" stroke-linejoin="round" stroke-linecap="round" stroke-width="1.33333" stroke="#1A2E35" d="m298.518,198.549c6.879,-1.349 9.899,2.156 9.899,2.156"/>
  <path id="svg_214" stroke-linejoin="round" stroke-linecap="round" stroke-width="1.33333" stroke="#1A2E35" d="m287.049,201.453c1.534,-1.553 3.647,-2.395 5.828,-2.322"/>
  <path id="svg_215" stroke-linejoin="round" stroke-linecap="round" stroke-width="1.33333" stroke="#1A2E35" d="m303.006,221.633c2.12,-1.214 3.304,-4.362 3.304,-4.362l-0.442,0.238c-2.769,1.487 -5.788,2.452 -8.905,2.847c1.99,2.094 4.634,2.084 6.043,1.277z"/>
  <path id="svg_216" stroke-linejoin="round" stroke-linecap="round" stroke-width="1.33333" stroke="#1A2E35" d="m294.576,215.066c-0.896,-0.111 -3.458,-1.325 -3.671,-3.057c-0.063,-0.519 0.312,-0.994 0.871,-1.406c2.216,-1.627 3.551,-4.19 3.355,-6.931c-0.015,-0.195 -0.023,-0.308 -0.023,-0.308"/>
  <path id="svg_217" fill="#1A2E35" d="m303.38,201.314c0.651,-0.081 1.321,1.003 1.495,2.409c0.172,1.406 -0.216,2.612 -0.867,2.693c-0.653,0.08 -1.321,-0.996 -1.494,-2.403c-0.175,-1.412 0.214,-2.619 0.866,-2.699z"/>
  <path id="svg_218" fill="#1A2E35" d="m292.029,205.383c0.17,1.382 -0.211,2.565 -0.849,2.643c-0.639,0.08 -1.296,-0.976 -1.466,-2.358c-0.17,-1.381 0.21,-2.564 0.849,-2.643c0.64,-0.078 1.296,0.978 1.466,2.358z"/>
  <path id="svg_219" stroke-linejoin="round" stroke-linecap="round" stroke-width="1.33333" stroke="#1A2E35" d="m313.165,202.502c0,0 -0.884,-2.497 0.122,-3.815"/>
  <path id="svg_220" stroke-linejoin="round" stroke-linecap="round" stroke-miterlimit="10" stroke-width="1.33333" stroke="#1A2E35" d="m345.177,316.497c-2.15,1.489 -6.651,3.927 -12.104,3.036c0,0 3.354,-17.44 -8.275,-18.157l5.368,-1.711l9.84,-38.592"/>
  <path id="svg_221" stroke-linejoin="round" stroke-linecap="round" stroke-miterlimit="10" stroke-width="1.33333" stroke="#1A2E35" d="m333.072,299.666c0,0 6.229,1.639 7.979,7.004"/>
  <path id="svg_222" stroke-linejoin="round" stroke-linecap="round" stroke-miterlimit="10" stroke-width="1.33333" stroke="#1A2E35" d="m307.643,237.556c5.918,-0.004 11.789,-1.335 17.182,-3.756"/>
  <path id="svg_223" stroke-linejoin="round" stroke-linecap="round" stroke-miterlimit="10" stroke-width="1.33333" stroke="#1A2E35" d="m299.613,236.635c1.327,0.358 2.694,0.572 4.06,0.716"/>
  <path id="svg_224" stroke-linejoin="round" stroke-linecap="round" stroke-miterlimit="10" stroke-width="1.33333" stroke="#1A2E35" d="m326.155,247.701c1.679,-0.598 3.443,-1.289 5.292,-2.084"/>
  <path id="svg_225" stroke-linejoin="round" stroke-linecap="round" stroke-miterlimit="10" stroke-width="1.33333" stroke="#1A2E35" d="m297,247.844c0,0 6.331,6.013 23.093,1.72"/>
  <path id="svg_226" stroke-linejoin="round" stroke-linecap="round" stroke-miterlimit="10" stroke-width="1.33333" stroke="#1A2E35" d="m302.473,277.735c0,0 0.995,14.519 11.75,19.925"/>
  <path id="svg_227" fill="#38BFF2" d="m321.289,302.681c0,0 2.123,-4.666 8.442,-2.363c0,0 5.981,2.057 7.772,8.208c1.788,6.15 -0.448,11.629 -4.81,11.853c-4.36,0.224 -5.156,-0.111 -4.423,-1.454c0.734,-1.342 2.248,-4.987 0.341,-9.549c-2.714,-6.491 -7.322,-6.695 -7.322,-6.695z"/>
  <g id="svg_228" opacity="0.2">
   <g id="svg_229" opacity="0.2">
    <path id="svg_230" fill="black" d="m321.29,302.681c0,0 2.122,-4.667 8.441,-2.364c0,0 5.982,2.058 7.772,8.208c1.788,6.15 -0.448,11.63 -4.809,11.854c-4.361,0.224 -5.157,-0.112 -4.423,-1.454c0.733,-1.342 2.247,-4.987 0.341,-9.549c-2.714,-6.491 -7.322,-6.695 -7.322,-6.695z" opacity="0.2"/>
   </g>
  </g>
  <path id="svg_231" stroke-linejoin="round" stroke-linecap="round" stroke-miterlimit="10" stroke-width="1.33333" stroke="#1A2E35" d="m321.289,302.681c0,0 2.123,-4.667 8.442,-2.364c0,0 5.981,2.058 7.771,8.208c1.789,6.15 -0.447,11.63 -4.809,11.854c-4.361,0.224 -5.157,-0.112 -4.423,-1.454c0.734,-1.342 2.248,-4.987 0.341,-9.549c-2.714,-6.491 -7.322,-6.695 -7.322,-6.695z"/>
  <path id="svg_232" fill="#38BFF2" d="m31.9672,283.48c0,0 -3.2474,-27.774 -31.96696,-16.584c0,0 24.43436,-0.181 28.56756,20.745l3.8007,-0.405l-0.4013,-3.756z"/>
  <g id="svg_233" opacity="0.10001">
   <g id="svg_234" opacity="0.10001">
    <path id="svg_235" fill="black" d="m31.967,283.48c0,0 -3.2474,-27.775 -31.967,-16.584c0,0 24.4344,-0.181 28.5675,20.745l3.8008,-0.405l-0.4013,-3.756z" opacity="0.10001"/>
   </g>
  </g>
  <path id="svg_236" fill="#38BFF2" d="m32.3574,283.013c0,0 -2.4834,-29.616 -7.8923,-52.632c0,0 16.525,17.48 12.7479,50.394l-4.8556,2.238z"/>
  <g id="svg_237" opacity="0.10001">
   <g id="svg_238" opacity="0.10001">
    <path id="svg_239" fill="black" d="m32.3572,283.013c0,0 -2.4835,-29.616 -7.8924,-52.632c0,0 16.5251,17.48 12.7479,50.394l-4.8555,2.238z" opacity="0.10001"/>
   </g>
  </g>
  <path id="svg_240" fill="#38BFF2" d="m30.755,302.617c0,0 -4.763,-40.793 -20.6175,-54.801c0,0 28.3541,7.052 24.1529,50.376l-3.5354,4.425z"/>
  <path id="svg_241" fill="#38BFF2" d="m35.7389,300.908c0,0 6.9452,-40.479 23.5288,-53.615c0,0 -28.6922,5.519 -26.8225,49.008l3.2937,4.607z"/>
  <path id="svg_242" fill="white" d="m50.2898,287.666l-33.5222,0l0,5.824l1.1161,0l0,20.554c0,5.764 4.6724,10.436 10.4363,10.436l10.4174,0c5.7639,0 10.4362,-4.672 10.4362,-10.436l0,-20.554l1.1162,0l0,-5.824z"/>
  <path id="svg_243" stroke-miterlimit="10" stroke-width="1.33333" stroke="#1A2E35" d="m50.2898,287.666l-33.5222,0l0,5.824l1.1161,0l0,20.554c0,5.764 4.6724,10.436 10.4363,10.436l10.4174,0c5.7639,0 10.4362,-4.672 10.4362,-10.436l0,-20.554l1.1162,0l0,-5.824z"/>
  <path id="svg_244" fill="white" d="m39.9004,293.215l4.4655,0l-4.4655,0z"/>
  <path id="svg_245" stroke-miterlimit="10" stroke-width="1.33333" stroke="#1A2E35" d="m39.9004,293.215l4.4655,0"/>
  <path id="svg_246" fill="white" d="m22.4272,293.215l12.934,0l-12.934,0z"/>
  <path id="svg_247" stroke-miterlimit="10" stroke-width="1.33333" stroke="#1A2E35" d="m22.4272,293.215l12.934,0"/>
  <path id="svg_248" fill="#38BFF2" d="m163.764,298.835l-8.592,-69.975c-0.273,-2.222 -2.296,-4.024 -4.519,-4.024l-9.861,0l11.384,78.024l8.058,0c2.222,0 3.803,-1.802 3.53,-4.025z"/>
  <path id="svg_249" stroke-linejoin="round" stroke-linecap="round" stroke-miterlimit="10" stroke-width="1.33333" stroke="#1A2E35" d="m163.764,298.835l-8.592,-69.975c-0.273,-2.222 -2.296,-4.024 -4.519,-4.024l-9.861,0l11.384,78.024l8.058,0c2.222,0 3.803,-1.802 3.53,-4.025z"/>
  <path id="svg_250" fill="#1A2E35" d="m158.103,302.859l-99.0177,0c-2.2219,0 -4.2446,-1.802 -4.5185,-4.025l-8.5911,-69.974c-0.2729,-2.223 1.3069,-4.025 3.5298,-4.025l99.0175,0c2.222,0 4.246,1.802 4.518,4.025l8.592,69.974c0.273,2.223 -1.307,4.025 -3.53,4.025z"/>
  <g id="svg_251" opacity="0.10001">
   <g id="svg_252" opacity="0.10001">
    <path id="svg_253" fill="white" d="m158.104,302.859l-99.0185,0c-2.2219,0 -4.2446,-1.802 -4.5184,-4.025l-8.5911,-69.974c-0.2729,-2.223 1.3069,-4.025 3.5297,-4.025l99.0173,0c2.223,0 4.246,1.802 4.518,4.025l8.592,69.974c0.273,2.223 -1.307,4.025 -3.529,4.025z" opacity="0.10001"/>
   </g>
  </g>
  <path id="svg_254" stroke-linejoin="round" stroke-linecap="round" stroke-miterlimit="10" stroke-width="1.33333" stroke="#1A2E35" d="m158.103,302.859l-99.0177,0c-2.2219,0 -4.2446,-1.802 -4.5185,-4.025l-8.5911,-69.974c-0.2729,-2.223 1.3069,-4.025 3.5298,-4.025l99.0175,0c2.222,0 4.246,1.802 4.518,4.025l8.592,69.974c0.273,2.223 -1.307,4.025 -3.53,4.025z"/>
  <path id="svg_255" fill="#1A2E35" d="m111.933,318.761l3.954,-45.069c0.094,-1.083 -0.759,-2.015 -1.846,-2.015l-24.9981,0c-0.9604,0 -1.7611,0.734 -1.8452,1.692l-4.3069,49.097c-0.0953,1.083 0.7583,2.015 1.8452,2.015l49.517,0c1.024,0 1.854,-0.83 1.854,-1.853c0,-1.023 -0.83,-1.852 -1.854,-1.852l-20.474,0c-1.087,0 -1.941,-0.933 -1.846,-2.015z"/>
  <path id="svg_256" stroke-linejoin="round" stroke-linecap="round" stroke-miterlimit="10" stroke-width="1.33333" stroke="#1A2E35" d="m111.933,318.761l3.954,-45.069c0.094,-1.083 -0.759,-2.015 -1.846,-2.015l-24.9981,0c-0.9604,0 -1.7611,0.734 -1.8452,1.692l-4.3069,49.097c-0.0953,1.083 0.7583,2.015 1.8452,2.015l49.517,0c1.024,0 1.854,-0.83 1.854,-1.853c0,-1.023 -0.83,-1.852 -1.854,-1.852l-20.474,0c-1.087,0 -1.941,-0.933 -1.846,-2.015z"/>
  <path id="svg_257" fill="#38BFF2" d="m136.107,322.628c0,-1.023 -0.83,-1.853 -1.853,-1.853l-20.475,0c-1.087,0 -1.941,-0.932 -1.846,-2.015l3.953,-45.068c0.096,-1.081 -0.754,-2.01 -1.838,-2.014c-0.958,0.004 -1.755,0.736 -1.839,1.69l-4.306,49.098c-0.096,1.084 0.759,2.015 1.845,2.015l24.506,0c1.023,0 1.853,-0.83 1.853,-1.853z"/>
  <path id="svg_258" stroke-linejoin="round" stroke-linecap="round" stroke-miterlimit="10" stroke-width="1.33333" stroke="#1A2E35" d="m136.107,322.628c0,-1.023 -0.83,-1.853 -1.853,-1.853l-20.475,0c-1.087,0 -1.941,-0.932 -1.846,-2.015l3.953,-45.068c0.096,-1.081 -0.754,-2.01 -1.838,-2.014c-0.958,0.004 -1.755,0.736 -1.839,1.69l-4.306,49.098c-0.096,1.084 0.759,2.015 1.845,2.015l24.506,0c1.023,0 1.853,-0.83 1.853,-1.853z"/>
  <path id="svg_259" stroke-linejoin="round" stroke-linecap="round" stroke-miterlimit="10" stroke-width="1.33333" stroke="#1A2E35" d="m22.5767,324.481l354.1083,0"/>
  <path id="svg_260" fill="white" d="m352.997,152.999l-18.617,0c-2.416,0 -4.376,1.959 -4.376,4.377l0,9.057c0,2.417 1.96,4.375 4.376,4.375l4.866,0l1.421,8.358l7.465,-8.358l4.865,0c2.418,0 4.376,-1.958 4.376,-4.375l0,-9.057c0,-2.418 -1.958,-4.377 -4.376,-4.377z"/>
  <path id="svg_261" stroke-linejoin="round" stroke-linecap="round" stroke-miterlimit="10" stroke-width="1.33333" stroke="#1A2E35" d="m352.997,152.999l-18.617,0c-2.416,0 -4.376,1.959 -4.376,4.377l0,9.057c0,2.417 1.96,4.375 4.376,4.375l4.866,0l1.421,8.358l7.465,-8.358l4.865,0c2.418,0 4.376,-1.958 4.376,-4.375l0,-9.057c0,-2.418 -1.958,-4.377 -4.376,-4.377z"/>
  <path id="svg_262" fill="white" d="m324.46,126.206l-18.617,0c-2.416,0 -4.376,1.959 -4.376,4.376l0,9.057c0,2.418 1.96,4.377 4.376,4.377l4.866,0l3.687,8.357l5.198,-8.357l4.866,0c2.418,0 4.377,-1.959 4.377,-4.377l0,-9.057c0,-2.417 -1.959,-4.376 -4.377,-4.376z"/>
  <path id="svg_263" stroke-linejoin="round" stroke-linecap="round" stroke-miterlimit="10" stroke-width="1.33333" stroke="#1A2E35" d="m324.46,126.206l-18.617,0c-2.416,0 -4.376,1.959 -4.376,4.376l0,9.057c0,2.418 1.96,4.377 4.376,4.377l4.866,0l3.687,8.357l5.198,-8.357l4.866,0c2.418,0 4.377,-1.959 4.377,-4.377l0,-9.057c0,-2.417 -1.959,-4.376 -4.377,-4.376z"/>
  <path id="svg_264" fill="white" d="m288.233,135.609l-17.581,0c-2.283,0 -4.133,1.85 -4.133,4.132l0,8.554c0,2.283 1.85,4.134 4.133,4.134l4.595,0l4.795,7.891l3.596,-7.891l4.595,0c2.283,0 4.134,-1.851 4.134,-4.134l0,-8.554c0,-2.282 -1.851,-4.132 -4.134,-4.132z"/>
  <path id="svg_265" stroke-linejoin="round" stroke-linecap="round" stroke-miterlimit="10" stroke-width="1.33333" stroke="#1A2E35" d="m288.233,135.609l-17.581,0c-2.283,0 -4.133,1.85 -4.133,4.132l0,8.554c0,2.283 1.85,4.134 4.133,4.134l4.595,0l4.795,7.891l3.596,-7.891l4.595,0c2.283,0 4.134,-1.851 4.134,-4.134l0,-8.554c0,-2.282 -1.851,-4.132 -4.134,-4.132z"/>
  <text font-weight="bold" xml:space="preserve" text-anchor="start" font-family="'Gilroy'" font-size="10" id="svg_278" y="147.03858" x="271.32041" stroke-width="0" stroke="#1A2E35" fill="#000000">def</text>
  <text font-weight="bold" xml:space="preserve" text-anchor="start" font-family="'Gilroy'" font-size="10" id="svg_279" y="138.54437" x="303.36673" stroke-width="0" stroke="#1A2E35" fill="#000000">class</text>
  <text font-weight="bold" xml:space="preserve" text-anchor="start" font-family="'Gilroy'" font-size="10" id="svg_280" y="164.41309" x="337.6527" stroke-width="0" stroke="#1A2E35" fill="#000000">try</text>
 </g>
</svg>
